<svg viewBox="0 0 640.06 343.97" xmlns="http://www.w3.org/2000/svg"><path d="m.82 155.38c7.96-79.38 72.35-140.38 135.09-153.32 21.68-4.45 40.09-1.24 76.09 5.36 134.14 24.58 158.54 77.88 229.48 66.48 57.69-9.27 69.33-49 110.43-38.6 48.74 12.3 70.29 77.7 76.09 95.42 6.16 18.71 26.37 80-5.36 134-40 68.1-132.13 72.58-160.82 74-62.48 3-67-19.26-137.24-24.66-114-8.75-143.24 46.79-210.14 24.66-63-20.85-122.14-98.28-113.62-183.34z"/><g fill="#fff"><path d="m68.71 201.94-21.47 25.2-5.87.12v-21.21l22.45-24.13c7.08-8.09 12.93-20.47 1.94-38.24h.1c-.17-.25-.38-.44-.54-.7a29.74 29.74 0 1 1 52.8-4.58h.1s-2.92 9.15-14.5 22.43zm153.62 4.3-22.18 27.76h-7.1v57.7h-51v-57.7h-78.59l-1.46-4.67 22.68-27.38h57.42v-97.88l8.52-36.31h42.45v134.18h27.23z"/><path d="m334.69 293.43v2.3c-1.44.2-2.84.45-4.32.58a73.71 73.71 0 0 1 -12.58 0 99.76 99.76 0 0 1 -28.1-6.88q-17.57-7.16-29.29-18.87a77.13 77.13 0 0 1 -17.57-27.23 93.1 93.1 0 0 1 -6-33.62v-51.26a93.27 93.27 0 0 1 5.7-33 80 80 0 0 1 17.58-27.55q11.56-12 29.36-19.25c1.69-.69 3.48-1.26 5.25-1.86a102 102 0 0 1 18.13 9.83l.28 3.83q-6.94 5.55-11.33 15.66a88.85 88.85 0 0 0 -5.8 22.75 220.88 220.88 0 0 0 -1.83 29.59v51.25a219.93 219.93 0 0 0 1.6 28.75 99.41 99.41 0 0 0 5.86 22.82 39.56 39.56 0 0 0 5.9 10.53c5.54 6.95 13.87 14.76 27.16 21.63zm76.71-135v51.25q0 19.93-6.93 36a79.07 79.07 0 0 1 -18.93 27.16 87 87 0 0 1 -29.37 17.65c-.83.3-1.71.56-2.57.86l-.28-.11a103.05 103.05 0 0 1 -17.66-9.5l-.35-4.53a37 37 0 0 0 10.51-14.24 91.65 91.65 0 0 0 6.31-22.74 208.19 208.19 0 0 0 1.9-30.51v-51.27a218.26 218.26 0 0 0 -1.75-29.06 93.87 93.87 0 0 0 -5.86-23c-.41-1-.88-1.88-1.33-2.81h.08s-.25-.5-.69-1.31a42.81 42.81 0 0 0 -3.48-5.64c-4.7-6.92-13.28-17.15-25.4-22v-2.59c.76-.09 1.49-.24 2.26-.31a79.17 79.17 0 0 1 12.58 0 98.57 98.57 0 0 1 29.11 7.19q17.8 7.46 29.21 19.47a77.84 77.84 0 0 1 17.12 27.77 95.78 95.78 0 0 1 5.51 32.29z"/><path d="m453.3 201.94-21.47 25.2-5.87.12v-21.21l22.45-24.13c7.08-8.09 12.93-20.47 1.94-38.24h.1c-.17-.25-.38-.44-.54-.7a29.74 29.74 0 1 1 52.8-4.58h.1s-2.92 9.15-14.5 22.43zm153.62 4.3-22.18 27.76h-7.1v57.7h-51v-57.7h-78.58l-1.48-4.72 22.68-27.38h57.42v-97.83l8.52-36.31h42.45v134.18h27.23z"/></g></svg>