<svg xmlns="http://www.w3.org/2000/svg" viewBox="0 0 363.3 77.61"><title>Artboard 1</title><g id="Layer_1" data-name="Layer 1"><path d="M0,40.38a3.81,3.81,0,1,1,4.37,3.15A3.81,3.81,0,0,1,0,40.38ZM17.78,12.53V32.05A14.69,14.69,0,0,1,17,36.72a11.74,11.74,0,0,1-2.24,4,11.13,11.13,0,0,1-3.85,2.87,12.35,12.35,0,0,1-5.17,1c-.28,0-.54,0-.79,0v-.38a8.55,8.55,0,0,0,3.65-1.58,3.82,3.82,0,0,0,1.36-2.2,37.12,37.12,0,0,0,.44-7.31V17.66A2.75,2.75,0,0,0,10,16.28a3,3,0,0,0-.92-1,4.77,4.77,0,0,0-1.36-.55,9.64,9.64,0,0,0-1.65-.33V12.78l11.32-.58ZM9.33,4.11a4.11,4.11,0,1,1,4.11,4.11A4.11,4.11,0,0,1,9.33,4.11Z"/><path d="M46,29.48a13.61,13.61,0,0,1-1.89,2.41,11.49,11.49,0,0,1-2.52,1.94,13.83,13.83,0,0,1-3,1.29,12.92,12.92,0,0,1-3.53.44,15.72,15.72,0,0,1-5.73-.94,11.24,11.24,0,0,1-4-2.53A10.15,10.15,0,0,1,23,28.32a13.86,13.86,0,0,1-.77-4.7,11.78,11.78,0,0,1,3.23-8.11,11.43,11.43,0,0,1,3.84-2.58,13.14,13.14,0,0,1,5.19-1l.69,0v.34a7,7,0,0,0-4.25,4.26h0a15.23,15.23,0,0,0-.65,4.49v1.88q0,4.6,1.77,7t5.63,2.4a6.54,6.54,0,0,0,3.79-1.15,10.81,10.81,0,0,0,2.87-2.93ZM35.93,14.39l0-.39a7.85,7.85,0,0,1,2.87-1.57c.31.08.61.17.89.27A9.13,9.13,0,0,1,43,14.82a7.65,7.65,0,0,1,1.86,3,11.37,11.37,0,0,1,.58,3.64v1.46H32.16V21L37.48,21q0-1.34-.13-2.76a9.17,9.17,0,0,0-.47-2.31A3.64,3.64,0,0,0,35.93,14.39Z"/><path d="M61,33.2a5,5,0,0,0,1,.22v1.64H48.59V33.43l1.14-.11a4,4,0,0,0,1-.22,1.75,1.75,0,0,0,1-.77A2.83,2.83,0,0,0,52,31v-13a2.85,2.85,0,0,0-.38-1.4,3.17,3.17,0,0,0-.92-1.06,3.71,3.71,0,0,0-1-.45,7.19,7.19,0,0,0-1.36-.25V13.14L59,12.56l.34.34V30.74a3.59,3.59,0,0,0,.2,1.3,1.57,1.57,0,0,0,.72.81A5.09,5.09,0,0,0,61,33.2Zm17.14.22v1.64H64.87V33.43l1-.11a2.43,2.43,0,0,0,.89-.22,1.08,1.08,0,0,0,.62-.75A5.68,5.68,0,0,0,67.53,31V20.52a6,6,0,0,0-.82-3.46,2.71,2.71,0,0,0-2.35-1.15,4.58,4.58,0,0,0-1.72.3,6.6,6.6,0,0,0-1.3.7L61,16.73V14.85a14.17,14.17,0,0,1,1.72-1.3A8.32,8.32,0,0,1,65,12.6a10.71,10.71,0,0,1,2.9-.38,6.71,6.71,0,0,1,5.21,2,8.09,8.09,0,0,1,1.83,5.67v10.9a3.06,3.06,0,0,0,.25,1.33,1.64,1.64,0,0,0,.9.77,8,8,0,0,0,.89.31A6.51,6.51,0,0,0,78.18,33.43Z"/><path d="M93.15,33.2a5,5,0,0,0,1,.22v1.64H80.7V33.43l1.14-.11a4,4,0,0,0,1-.22,1.75,1.75,0,0,0,1-.77A2.83,2.83,0,0,0,84.07,31v-13a2.85,2.85,0,0,0-.38-1.4,3.17,3.17,0,0,0-.92-1.06,3.71,3.71,0,0,0-1-.45,7.19,7.19,0,0,0-1.36-.25V13.14l10.69-.58.34.34V30.74a3.59,3.59,0,0,0,.2,1.3,1.57,1.57,0,0,0,.72.81A5.06,5.06,0,0,0,93.15,33.2Zm17.14.22v1.64H97V33.43l1-.11a2.43,2.43,0,0,0,.89-.22,1.08,1.08,0,0,0,.62-.75A5.68,5.68,0,0,0,99.64,31V20.52a6,6,0,0,0-.82-3.46,2.71,2.71,0,0,0-2.35-1.15,4.58,4.58,0,0,0-1.72.3,6.6,6.6,0,0,0-1.3.7l-.31-.17V14.85a14.17,14.17,0,0,1,1.72-1.3,8.32,8.32,0,0,1,2.23-.94,10.72,10.72,0,0,1,2.9-.38,6.71,6.71,0,0,1,5.21,2A8.09,8.09,0,0,1,107,19.89v10.9a3.06,3.06,0,0,0,.25,1.33,1.64,1.64,0,0,0,.9.77,8,8,0,0,0,.89.31A6.51,6.51,0,0,0,110.29,33.43Z"/><path d="M124.69,21.23l.47.25v1.59c-.44.17-.88.35-1.32.55a9.94,9.94,0,0,0-2,1.16,4.34,4.34,0,0,0-1.3,1.61,5.22,5.22,0,0,0-.47,2.3,3.45,3.45,0,0,0,.8,2.54,2.69,2.69,0,0,0,2,.79,3.77,3.77,0,0,0,2-.49l.34.18v1.67l-.29.24a8.43,8.43,0,0,1-1.52.92,11.37,11.37,0,0,1-2,.74,11.7,11.7,0,0,1-2.73.25A6.71,6.71,0,0,1,114.16,34a5,5,0,0,1-1.84-4.08,6.74,6.74,0,0,1,.4-2.48,5.63,5.63,0,0,1,1.15-1.81,5.94,5.94,0,0,1,1.56-1.19,17.21,17.21,0,0,1,1.94-.87q2-.74,4.85-1.54C123.19,21.73,124,21.47,124.69,21.23Zm-11.08-3.81a3.79,3.79,0,0,1,1.56-3.06h0s2.76-2.26,9.39-2.35l.5.26V13s-3.82.85-3.82,4.28h0s0,.07,0,.11a3.81,3.81,0,0,1-7.62,0Zm23.86,15.26v1.64a16.9,16.9,0,0,1-2.33.78,11,11,0,0,1-2.84.36,7.79,7.79,0,0,1-4-.82,4.1,4.1,0,0,1-1.77-2.34l-.12-12.42V12c.36,0,.74.06,1.08.11a9.43,9.43,0,0,1,3.27,1.06,5.68,5.68,0,0,1,2.21,2.28,8.06,8.06,0,0,1,.82,3.89q0,2.53-.1,6t-.1,4.57a3.49,3.49,0,0,0,.3,1.59,1.93,1.93,0,0,0,.93.87,3.32,3.32,0,0,0,1.2.21Z"/><path d="M168.62,33.28a5,5,0,0,0,1,.22v1.64H156.16V33.5l1.14-.11a4,4,0,0,0,1-.22,1.75,1.75,0,0,0,1-.77,2.84,2.84,0,0,0,.27-1.33V18a2.85,2.85,0,0,0-.38-1.4,3.17,3.17,0,0,0-.92-1.06,3.71,3.71,0,0,0-1-.45,7.18,7.18,0,0,0-1.36-.25V13.21l10.69-.58.34.34V30.81a3.59,3.59,0,0,0,.2,1.3,1.57,1.57,0,0,0,.72.81A5,5,0,0,0,168.62,33.28Zm15.58,0a6.51,6.51,0,0,0,1.22.22v1.64H172.11V33.5l1-.11a2.43,2.43,0,0,0,.89-.22,1.07,1.07,0,0,0,.62-.75,5.68,5.68,0,0,0,.13-1.36V20.59a6,6,0,0,0-.82-3.46A2.71,2.71,0,0,0,171.61,16a4.58,4.58,0,0,0-1.72.3,6.71,6.71,0,0,0-1.3.7l-.31-.17V14.92A14.13,14.13,0,0,1,170,13.62a8.31,8.31,0,0,1,2.23-.94,10.7,10.7,0,0,1,2.9-.38,6.71,6.71,0,0,1,5.21,2A8.1,8.1,0,0,1,182.17,20V30.85a3.06,3.06,0,0,0,.25,1.33,1.64,1.64,0,0,0,.9.77A7.92,7.92,0,0,0,184.2,33.28Zm16.5.22v1.64H187.39V33.5l1-.11a2.44,2.44,0,0,0,.89-.22,1.08,1.08,0,0,0,.62-.75,5.74,5.74,0,0,0,.13-1.36V20.59a6,6,0,0,0-.82-3.46A2.71,2.71,0,0,0,186.89,16a4.58,4.58,0,0,0-1.72.3,6.68,6.68,0,0,0-1.3.7l-.31-.17V14.92a14.37,14.37,0,0,1,1.72-1.31,8.31,8.31,0,0,1,2.23-.94,10.7,10.7,0,0,1,2.9-.38,6.71,6.71,0,0,1,5.21,2A8.1,8.1,0,0,1,197.45,20V30.85a3.06,3.06,0,0,0,.25,1.33,1.64,1.64,0,0,0,.9.77,7.89,7.89,0,0,0,.89.31A6.52,6.52,0,0,0,200.7,33.5Z"/><path d="M217.66,33.5v1.64H203.5V33.5l1.14-.11a4,4,0,0,0,1-.22,1.86,1.86,0,0,0,1-.77,2.65,2.65,0,0,0,.29-1.33V18a2.61,2.61,0,0,0-.36-1.38,3,3,0,0,0-.9-1,4.76,4.76,0,0,0-1.22-.52,8,8,0,0,0-1.49-.31V13.21l11-.58.34.34v17.8a2.51,2.51,0,0,0,.34,1.33,2,2,0,0,0,1,.82,7.36,7.36,0,0,0,1,.36A6.69,6.69,0,0,0,217.66,33.5ZM205.85,4.55A4.11,4.11,0,1,1,210,8.66,4.11,4.11,0,0,1,205.85,4.55Z"/><path d="M241.5,29.18a12.75,12.75,0,0,1-1.66,2.5,10.59,10.59,0,0,1-2.31,2,12.09,12.09,0,0,1-2.87,1.39,11,11,0,0,1-3.38.47,15.41,15.41,0,0,1-5.5-.91,10.83,10.83,0,0,1-3.93-2.48,10.14,10.14,0,0,1-2.31-3.77,14.21,14.21,0,0,1-.76-4.73,10.87,10.87,0,0,1,.93-4.44,11.67,11.67,0,0,1,6.59-6.31,14.13,14.13,0,0,1,4.94-1l.05.33c-.91.85-3.18,3.17-3.64,5.39h0c-.12.37-.23.76-.32,1.19a21.36,21.36,0,0,0-.41,4.53,10.3,10.3,0,0,0,1.87,6.43,5.51,5.51,0,0,0,4.47,2.44,6.41,6.41,0,0,0,4-1.11A10,10,0,0,0,239.82,28Zm-8.71-14.9h0l.13-.72,1.47-1.39c4.22.53,5.52,3.1,5.52,3.1h0a3.81,3.81,0,1,1-7,2.11A7.84,7.84,0,0,0,232.79,14.28Z"/><path d="M255.9,33.28a7.3,7.3,0,0,0,1.06.22v1.64H243.29V33.5l1.14-.11a4.4,4.4,0,0,0,1-.22,1.7,1.7,0,0,0,1-.77,2.91,2.91,0,0,0,.26-1.33v-25a4,4,0,0,0-.34-1.52,2.61,2.61,0,0,0-.94-1.21,3.77,3.77,0,0,0-1.3-.46,12.26,12.26,0,0,0-1.52-.21V1L253.72.44l.34.36v30a3.46,3.46,0,0,0,.2,1.31,1.65,1.65,0,0,0,.76.8A3.68,3.68,0,0,0,255.9,33.28Zm17,.22v1.64H259.46V33.5l1.05-.11a2.58,2.58,0,0,0,.9-.22,1.37,1.37,0,0,0,.66-.72,3.89,3.89,0,0,0,.19-1.39V20.57a5.71,5.71,0,0,0-.86-3.45A2.89,2.89,0,0,0,258.94,16a5,5,0,0,0-1.67.27,6.25,6.25,0,0,0-1.51.78l0,0-.33-.18,0-1.81.24-.22a12.65,12.65,0,0,1,1.67-1.24,8,8,0,0,1,2.16-.92,10.4,10.4,0,0,1,2.88-.38,6.86,6.86,0,0,1,5.45,2.08,8,8,0,0,1,1.82,5.49v11a3,3,0,0,0,.25,1.32,1.74,1.74,0,0,0,.92.78,6.35,6.35,0,0,0,.9.31A8.88,8.88,0,0,0,272.93,33.5Z"/><path d="M287.35,21.23l.47.25v1.59c-.44.17-.88.35-1.32.55a9.94,9.94,0,0,0-2,1.16,4.34,4.34,0,0,0-1.3,1.61,5.22,5.22,0,0,0-.47,2.3,3.45,3.45,0,0,0,.8,2.54,2.69,2.69,0,0,0,2,.79,3.77,3.77,0,0,0,2-.49l.34.18v1.67l-.29.24a8.43,8.43,0,0,1-1.52.92,11.37,11.37,0,0,1-2,.74,11.7,11.7,0,0,1-2.73.25A6.71,6.71,0,0,1,276.81,34,5,5,0,0,1,275,29.89a6.74,6.74,0,0,1,.4-2.48,5.63,5.63,0,0,1,1.15-1.81,5.94,5.94,0,0,1,1.56-1.19,17.21,17.21,0,0,1,1.94-.87q2-.74,4.85-1.54C285.84,21.73,286.66,21.47,287.35,21.23Zm-11.08-3.81a3.79,3.79,0,0,1,1.56-3.06h0s2.76-2.26,9.39-2.35l.5.26V13s-3.82.85-3.82,4.28h0s0,.07,0,.11a3.81,3.81,0,0,1-7.62,0Zm23.86,15.26v1.64a16.9,16.9,0,0,1-2.33.78,11,11,0,0,1-2.84.36,7.79,7.79,0,0,1-4-.82,4.1,4.1,0,0,1-1.77-2.34L289,19.87V12c.36,0,.74.06,1.08.11a9.43,9.43,0,0,1,3.27,1.06,5.68,5.68,0,0,1,2.21,2.28,8.06,8.06,0,0,1,.82,3.89q0,2.53-.1,6T296.2,30a3.49,3.49,0,0,0,.3,1.59,1.93,1.93,0,0,0,.93.87,3.32,3.32,0,0,0,1.2.21Z"/><path d="M325.06,29.48a13.61,13.61,0,0,1-1.89,2.41,11.49,11.49,0,0,1-2.52,1.94,13.83,13.83,0,0,1-3,1.29,12.92,12.92,0,0,1-3.53.44,15.72,15.72,0,0,1-5.73-.94,11.24,11.24,0,0,1-4-2.53A10.15,10.15,0,0,1,302,28.32a13.86,13.86,0,0,1-.77-4.7,11.78,11.78,0,0,1,3.23-8.11,11.43,11.43,0,0,1,3.84-2.58,13.14,13.14,0,0,1,5.19-1l.69,0v.34a7,7,0,0,0-4.25,4.26h0a15.23,15.23,0,0,0-.65,4.49v1.88q0,4.6,1.77,7t5.63,2.4a6.54,6.54,0,0,0,3.79-1.15,10.81,10.81,0,0,0,2.87-2.93ZM314.94,14.39l0-.39a7.85,7.85,0,0,1,2.87-1.57c.31.08.61.17.89.27A9.13,9.13,0,0,1,322,14.82a7.65,7.65,0,0,1,1.86,3,11.37,11.37,0,0,1,.58,3.64v1.46H311.18V21L316.5,21q0-1.34-.13-2.76a9.17,9.17,0,0,0-.47-2.31A3.64,3.64,0,0,0,314.94,14.39Z"/><path d="M340.42,33.5v1.64H326.3V33.5l1.14-.11a4.41,4.41,0,0,0,1-.22,1.71,1.71,0,0,0,1-.77,2.93,2.93,0,0,0,.26-1.33V6.22a3.62,3.62,0,0,0-.35-1.58,2.64,2.64,0,0,0-.93-1.11A5.41,5.41,0,0,0,327,3a7.43,7.43,0,0,0-1.6-.31V1l11.3-.58.34.36v30a2.69,2.69,0,0,0,.29,1.34,2,2,0,0,0,.95.81,8.81,8.81,0,0,0,.95.36A5.82,5.82,0,0,0,340.42,33.5Z"/><path d="M363.3,28a6.55,6.55,0,0,1-2.88,5.69,12.84,12.84,0,0,1-7.52,2,13.75,13.75,0,0,1-1.41-.08l0-.23c2.89-1,4.12-2.17,4.57-2.81l0,0a2.17,2.17,0,0,0,.24-.41h0a3.64,3.64,0,0,0,.32-1.57,2.36,2.36,0,0,0-.45-1.48,3.82,3.82,0,0,0-1.23-1,11.43,11.43,0,0,0-1.92-.76l-2.57-.76a24.41,24.41,0,0,1-2.61-.91,8.9,8.9,0,0,1-2.25-1.44,6.33,6.33,0,0,1-2.22-5A6.06,6.06,0,0,1,346,14a11.48,11.48,0,0,1,7-1.95,16.2,16.2,0,0,1,2.42.2v.3a7.26,7.26,0,0,0-4.81,2.6h0a2.37,2.37,0,0,0-.51,1.54,2.59,2.59,0,0,0,1.44,2.47,19.29,19.29,0,0,0,4,1.43,13.17,13.17,0,0,1,5.86,2.81A6,6,0,0,1,363.3,28Zm-11.14,3.4A4.11,4.11,0,1,1,348,27.24,4.11,4.11,0,0,1,352.16,31.35Zm2.73-14.88a3.81,3.81,0,1,1,3.81,3.81A3.81,3.81,0,0,1,354.88,16.47Z"/><path d="M.82,63a.28.28,0,0,1-.07-.2V55a.3.3,0,0,1,.07-.21A.25.25,0,0,1,1,54.69H5.89a.27.27,0,0,1,.29.29v.44a.27.27,0,0,1-.08.2.28.28,0,0,1-.21.08h-4v2.84H5.65a.28.28,0,0,1,.21.08.27.27,0,0,1,.08.2v.46a.26.26,0,0,1-.08.2.29.29,0,0,1-.2.08H1.87v3.26a.26.26,0,0,1-.08.2.29.29,0,0,1-.2.08H1A.25.25,0,0,1,.82,63Z"/><path d="M8.42,63a.28.28,0,0,1-.07-.2V55a.3.3,0,0,1,.07-.21.25.25,0,0,1,.19-.08h2.93a3.26,3.26,0,0,1,2.14.64,2.29,2.29,0,0,1,.77,1.87,2.23,2.23,0,0,1-1.73,2.32l1.85,3.2a.3.3,0,0,1,0,.13.25.25,0,0,1-.24.24h-.53a.43.43,0,0,1-.28-.08.78.78,0,0,1-.19-.24l-1.76-3.07H9.48v3.12a.26.26,0,0,1-.08.2.29.29,0,0,1-.2.08H8.61A.25.25,0,0,1,8.42,63Zm3.07-4.3q1.81,0,1.81-1.52t-1.81-1.52h-2v3Z"/><path d="M17.37,62.39a3.44,3.44,0,0,1-.9-2.48q0-.36,0-1t0-1a3.4,3.4,0,0,1,.93-2.47,3.31,3.31,0,0,1,2.38-.84,3.29,3.29,0,0,1,2.38.84,3.42,3.42,0,0,1,.92,2.47q0,.7,0,1t0,1a3.46,3.46,0,0,1-.89,2.48,3.31,3.31,0,0,1-2.41.82A3.33,3.33,0,0,1,17.37,62.39Zm3.95-.76a2.59,2.59,0,0,0,.62-1.78q0-.72,0-1t0-1a2.62,2.62,0,0,0-.62-1.79,2.31,2.31,0,0,0-3.08,0,2.56,2.56,0,0,0-.62,1.79q0,.35,0,1t0,1a2.56,2.56,0,0,0,.61,1.78,2.08,2.08,0,0,0,1.55.58A2.06,2.06,0,0,0,21.32,61.63Z"/><path d="M25.56,63a.28.28,0,0,1-.07-.2V55a.3.3,0,0,1,.07-.21.25.25,0,0,1,.19-.08h.53a.29.29,0,0,1,.18,0l.12.12,4,6.19V55a.28.28,0,0,1,.08-.21.27.27,0,0,1,.2-.08h.54a.27.27,0,0,1,.29.29V62.8a.29.29,0,0,1-.08.2.26.26,0,0,1-.2.08h-.54a.3.3,0,0,1-.29-.17l-4-6.13v6a.27.27,0,0,1-.28.28h-.55A.25.25,0,0,1,25.56,63Z"/><path d="M36.31,63a.27.27,0,0,1-.08-.2V55.72H33.92a.27.27,0,0,1-.28-.28V55a.28.28,0,0,1,.08-.21.27.27,0,0,1,.2-.08h5.76a.26.26,0,0,1,.2.08A.3.3,0,0,1,40,55v.47a.27.27,0,0,1-.28.28h-2.3v7.09a.26.26,0,0,1-.08.2.29.29,0,0,1-.2.08h-.58A.27.27,0,0,1,36.31,63Z"/><path d="M41.09,59.3a.25.25,0,0,1-.08-.19v-.43a.27.27,0,0,1,.28-.28h3.6a.27.27,0,0,1,.28.28v.43a.25.25,0,0,1-.08.19.28.28,0,0,1-.2.07h-3.6A.28.28,0,0,1,41.09,59.3Z"/><path d="M47.67,63a.28.28,0,0,1-.07-.2V55a.3.3,0,0,1,.07-.21.25.25,0,0,1,.19-.08H52.8a.27.27,0,0,1,.29.29v.43a.25.25,0,0,1-.08.19.3.3,0,0,1-.21.07H48.7v2.68h3.83a.27.27,0,0,1,.29.29V59a.27.27,0,0,1-.08.2.28.28,0,0,1-.21.08H48.7v2.77h4.19a.27.27,0,0,1,.29.29v.43a.26.26,0,0,1-.08.2.29.29,0,0,1-.2.08h-5A.25.25,0,0,1,47.67,63Z"/><path d="M55.53,63a.28.28,0,0,1-.07-.2V55a.3.3,0,0,1,.07-.21.25.25,0,0,1,.19-.08h.53a.29.29,0,0,1,.18,0l.12.12,4,6.19V55a.28.28,0,0,1,.08-.21.27.27,0,0,1,.2-.08h.54a.27.27,0,0,1,.29.29V62.8a.29.29,0,0,1-.08.2.26.26,0,0,1-.2.08h-.54a.3.3,0,0,1-.29-.17l-4-6.13v6a.27.27,0,0,1-.28.28h-.55A.25.25,0,0,1,55.53,63Z"/><path d="M64.45,63a.28.28,0,0,1-.07-.2V55a.3.3,0,0,1,.07-.21.25.25,0,0,1,.19-.08h2.71A3.58,3.58,0,0,1,70,55.5a3.41,3.41,0,0,1,.83,2.44q0,.35,0,.94t0,.95a4.54,4.54,0,0,1-.37,1.85,2.2,2.2,0,0,1-1.07,1.06,4.57,4.57,0,0,1-1.94.35H64.64A.25.25,0,0,1,64.45,63Zm2.9-.92a3.19,3.19,0,0,0,1.34-.23,1.43,1.43,0,0,0,.72-.73,3.63,3.63,0,0,0,.25-1.35q0-.72,0-.9t0-.89a2.51,2.51,0,0,0-.57-1.76,2.43,2.43,0,0,0-1.79-.56H65.5v6.42Z"/><path d="M77.62,62.78l-1.55-7.72,0-.13a.25.25,0,0,1,.24-.24h.59q.25,0,.29.2l1.24,6.26,1.33-4.32a.35.35,0,0,1,.37-.29h.42a.38.38,0,0,1,.38.29l1.32,4.32,1.24-6.26q0-.2.3-.2h.58a.25.25,0,0,1,.24.24.69.69,0,0,1,0,.13L83,62.78a.34.34,0,0,1-.37.31h-.43a.39.39,0,0,1-.4-.3l-1.49-4.62-1.5,4.62a.37.37,0,0,1-.38.3H78A.35.35,0,0,1,77.62,62.78Z"/><path d="M86.84,63a.28.28,0,0,1-.07-.2V55a.3.3,0,0,1,.07-.21.25.25,0,0,1,.19-.08H92a.27.27,0,0,1,.29.29v.43a.25.25,0,0,1-.08.19.3.3,0,0,1-.21.07H87.87v2.68H91.7a.27.27,0,0,1,.29.29V59a.27.27,0,0,1-.08.2.28.28,0,0,1-.21.08H87.87v2.77h4.19a.27.27,0,0,1,.29.29v.43a.26.26,0,0,1-.08.2.29.29,0,0,1-.2.08H87A.25.25,0,0,1,86.84,63Z"/><path d="M94.7,63a.28.28,0,0,1-.07-.2V55a.3.3,0,0,1,.07-.21.25.25,0,0,1,.19-.08h3.28a2.7,2.7,0,0,1,1.92.61,2.1,2.1,0,0,1,.65,1.6,1.91,1.91,0,0,1-1,1.78,2.21,2.21,0,0,1,1.21,2,2.48,2.48,0,0,1-.31,1.22,2.2,2.2,0,0,1-.91.88,3,3,0,0,1-1.43.32H94.89A.25.25,0,0,1,94.7,63ZM98,58.25a1.76,1.76,0,0,0,1.19-.35,1.24,1.24,0,0,0,.41-1,1.15,1.15,0,0,0-.4-.95A1.87,1.87,0,0,0,98,55.64H95.75v2.62Zm.12,3.89a1.69,1.69,0,0,0,1.21-.41,1.51,1.51,0,0,0,0-2.13,1.7,1.7,0,0,0-1.21-.41H95.75v3Z"/><path d="M106.85,63a.28.28,0,0,1-.07-.2V55a.3.3,0,0,1,.07-.21.25.25,0,0,1,.19-.08h2.71a3.58,3.58,0,0,1,2.62.81,3.41,3.41,0,0,1,.83,2.44q0,.35,0,.94t0,.95a4.54,4.54,0,0,1-.37,1.85,2.2,2.2,0,0,1-1.07,1.06,4.57,4.57,0,0,1-1.94.35H107A.25.25,0,0,1,106.85,63Zm2.9-.92a3.19,3.19,0,0,0,1.34-.23,1.43,1.43,0,0,0,.72-.73,3.63,3.63,0,0,0,.25-1.35q0-.72,0-.9t0-.89a2.51,2.51,0,0,0-.57-1.76,2.43,2.43,0,0,0-1.79-.56h-1.79v6.42Z"/><path d="M115.71,63a.28.28,0,0,1-.07-.2V55a.3.3,0,0,1,.07-.21.25.25,0,0,1,.19-.08h4.93a.27.27,0,0,1,.29.29v.43a.25.25,0,0,1-.08.19.3.3,0,0,1-.21.07h-4.09v2.68h3.83a.27.27,0,0,1,.29.29V59a.27.27,0,0,1-.08.2.28.28,0,0,1-.21.08h-3.83v2.77h4.19a.27.27,0,0,1,.29.29v.43a.26.26,0,0,1-.08.2.29.29,0,0,1-.2.08h-5A.25.25,0,0,1,115.71,63Z"/><path d="M125.47,62.78l-2.7-7.72,0-.13a.22.22,0,0,1,.08-.17.25.25,0,0,1,.17-.07h.58a.32.32,0,0,1,.21.07.31.31,0,0,1,.1.15l2.38,6.86,2.39-6.86a.31.31,0,0,1,.1-.15.32.32,0,0,1,.21-.07h.58a.25.25,0,0,1,.24.24.58.58,0,0,1,0,.13l-2.7,7.72a.43.43,0,0,1-.43.31h-.73A.43.43,0,0,1,125.47,62.78Z"/><path d="M131.91,63a.28.28,0,0,1-.07-.2V55a.3.3,0,0,1,.07-.21.25.25,0,0,1,.19-.08H137a.27.27,0,0,1,.29.29v.43a.25.25,0,0,1-.08.19.3.3,0,0,1-.21.07h-4.09v2.68h3.83a.27.27,0,0,1,.29.29V59a.27.27,0,0,1-.08.2.28.28,0,0,1-.21.08h-3.83v2.77h4.19a.27.27,0,0,1,.29.29v.43a.26.26,0,0,1-.08.2.29.29,0,0,1-.2.08h-5A.25.25,0,0,1,131.91,63Z"/><path d="M139.77,63a.28.28,0,0,1-.07-.2V55a.28.28,0,0,1,.07-.2.25.25,0,0,1,.19-.08h.6a.25.25,0,0,1,.19.08.28.28,0,0,1,.07.2v7.12h4a.28.28,0,0,1,.21.08.27.27,0,0,1,.08.2v.46a.26.26,0,0,1-.08.2.29.29,0,0,1-.2.08H140A.25.25,0,0,1,139.77,63Z"/><path d="M147.5,62.39a3.44,3.44,0,0,1-.9-2.48q0-.36,0-1t0-1a3.4,3.4,0,0,1,.93-2.47,3.79,3.79,0,0,1,4.76,0,3.42,3.42,0,0,1,.92,2.47q0,.7,0,1t0,1a3.46,3.46,0,0,1-.89,2.48,3.94,3.94,0,0,1-4.82,0Zm3.95-.76a2.59,2.59,0,0,0,.62-1.78q0-.72,0-1t0-1a2.62,2.62,0,0,0-.62-1.79,2.31,2.31,0,0,0-3.08,0,2.56,2.56,0,0,0-.62,1.79q0,.35,0,1t0,1a2.56,2.56,0,0,0,.61,1.78,2.33,2.33,0,0,0,3.08,0Z"/><path d="M155.68,63a.28.28,0,0,1-.07-.2V55a.3.3,0,0,1,.07-.21.25.25,0,0,1,.19-.08h3a3.2,3.2,0,0,1,2.13.65,2.72,2.72,0,0,1,0,3.8,3.22,3.22,0,0,1-2.13.65h-2.16v3a.27.27,0,0,1-.28.28h-.6A.25.25,0,0,1,155.68,63Zm3.17-4.19q1.81,0,1.81-1.57a1.51,1.51,0,0,0-.45-1.18,2,2,0,0,0-1.36-.41h-2.1v3.16Z"/><path d="M164,63a.28.28,0,0,1-.07-.2V55a.3.3,0,0,1,.07-.21.25.25,0,0,1,.19-.08h4.93a.27.27,0,0,1,.29.29v.43a.25.25,0,0,1-.08.19.3.3,0,0,1-.21.07H165v2.68h3.83a.27.27,0,0,1,.29.29V59a.27.27,0,0,1-.08.2.28.28,0,0,1-.21.08H165v2.77h4.19a.27.27,0,0,1,.29.29v.43a.26.26,0,0,1-.08.2.29.29,0,0,1-.2.08h-5A.25.25,0,0,1,164,63Z"/><path d="M171.83,63a.28.28,0,0,1-.07-.2V55a.3.3,0,0,1,.07-.21.25.25,0,0,1,.19-.08H175a3.26,3.26,0,0,1,2.14.64,2.29,2.29,0,0,1,.77,1.87,2.23,2.23,0,0,1-1.73,2.32l1.85,3.2a.3.3,0,0,1,0,.13.25.25,0,0,1-.24.24h-.53A.43.43,0,0,1,177,63a.78.78,0,0,1-.19-.24L175,59.69h-2.14v3.12a.26.26,0,0,1-.08.2.29.29,0,0,1-.2.08H172A.25.25,0,0,1,171.83,63Zm3.07-4.3q1.81,0,1.81-1.52t-1.81-1.52h-2v3Z"/><path d="M1.7,77.31a2.32,2.32,0,0,1-1-.84,2.21,2.21,0,0,1-.35-1.22A2,2,0,0,1,.82,74a4.64,4.64,0,0,1,1.25-1,5.08,5.08,0,0,1-.81-1.06,2,2,0,0,1-.23-1,1.83,1.83,0,0,1,.28-1,2,2,0,0,1,.79-.72A2.46,2.46,0,0,1,3.26,69a2.47,2.47,0,0,1,1.14.26,1.93,1.93,0,0,1,.78.7,1.85,1.85,0,0,1,.28,1A1.72,1.72,0,0,1,5,72.16a5.92,5.92,0,0,1-1.36,1l2.06,2a5.06,5.06,0,0,0,.65-1.85.28.28,0,0,1,.08-.17.25.25,0,0,1,.19-.07h.49a.25.25,0,0,1,.25.25,4.1,4.1,0,0,1-.27,1.21,5.72,5.72,0,0,1-.69,1.31L7.6,77.08a.22.22,0,0,1,.1.18.2.2,0,0,1-.23.23H6.84a.44.44,0,0,1-.32-.12l-.79-.79a3.56,3.56,0,0,1-2.59,1A3.25,3.25,0,0,1,1.7,77.31Zm2.42-.84A2.64,2.64,0,0,0,5,75.86L2.73,73.65a3.91,3.91,0,0,0-1,.71,1.22,1.22,0,0,0-.34.86,1.28,1.28,0,0,0,.5,1.06,1.88,1.88,0,0,0,1.19.39A2.58,2.58,0,0,0,4.12,76.47Zm-.06-4.72a1,1,0,0,0,.37-.8,1,1,0,0,0-.34-.79,1.25,1.25,0,0,0-.85-.29,1.23,1.23,0,0,0-.83.3,1,1,0,0,0-.35.78,1.29,1.29,0,0,0,.19.65,5.1,5.1,0,0,0,.71.88A5.58,5.58,0,0,0,4.06,71.75Z"/><path d="M13.82,76.75a3.37,3.37,0,0,1-.92-2.34q0-.36,0-1.13t0-1.13a3.27,3.27,0,0,1,.92-2.32A3.31,3.31,0,0,1,16.24,69a3.81,3.81,0,0,1,1.79.38,3,3,0,0,1,1.1.92,2,2,0,0,1,.4,1v0a.2.2,0,0,1-.08.16.26.26,0,0,1-.17.07h-.67a.24.24,0,0,1-.16,0,.44.44,0,0,1-.1-.18,2,2,0,0,0-.71-.95A2.28,2.28,0,0,0,16.24,70a2.19,2.19,0,0,0-1.58.55,2.37,2.37,0,0,0-.61,1.7q0,.35,0,1.07t0,1.07a2.39,2.39,0,0,0,.61,1.72,2.19,2.19,0,0,0,1.58.55,2.33,2.33,0,0,0,1.63-.56,2.15,2.15,0,0,0,.61-1.67v-.52H16.65a.26.26,0,0,1-.2-.08.29.29,0,0,1-.08-.2v-.36a.29.29,0,0,1,.08-.2.26.26,0,0,1,.2-.08h2.69a.27.27,0,0,1,.29.29v1.14a3.52,3.52,0,0,1-.4,1.71,2.75,2.75,0,0,1-1.17,1.14,3.85,3.85,0,0,1-1.81.4A3.28,3.28,0,0,1,13.82,76.75Z"/><path d="M22,77.41a.28.28,0,0,1-.07-.2V69.38a.3.3,0,0,1,.07-.21.25.25,0,0,1,.19-.08h2.93a3.26,3.26,0,0,1,2.14.64,2.29,2.29,0,0,1,.77,1.87,2.23,2.23,0,0,1-1.73,2.32l1.85,3.2a.3.3,0,0,1,0,.13.25.25,0,0,1-.24.24h-.53a.43.43,0,0,1-.28-.08.78.78,0,0,1-.19-.24l-1.76-3.07H23.08v3.12a.26.26,0,0,1-.08.2.29.29,0,0,1-.2.08h-.58A.25.25,0,0,1,22,77.41Zm3.07-4.3q1.81,0,1.81-1.52T25.1,70.06h-2v3Z"/><path d="M29.66,77.42a.23.23,0,0,1-.07-.17l0-.13,3-7.76a.37.37,0,0,1,.38-.26h.77a.37.37,0,0,1,.38.26l3,7.76,0,.13a.22.22,0,0,1-.08.17.25.25,0,0,1-.17.07h-.56a.29.29,0,0,1-.2-.07.31.31,0,0,1-.1-.14l-.67-1.73h-4l-.66,1.73a.31.31,0,0,1-.3.2h-.58A.23.23,0,0,1,29.66,77.42Zm2.05-2.86H35l-1.64-4.31Z"/><path d="M39.09,77.41a.28.28,0,0,1-.07-.2V69.38a.3.3,0,0,1,.07-.21.25.25,0,0,1,.19-.08h3a3.2,3.2,0,0,1,2.13.65,2.72,2.72,0,0,1,0,3.8,3.22,3.22,0,0,1-2.13.65H40.16v3a.27.27,0,0,1-.28.28h-.6A.25.25,0,0,1,39.09,77.41Zm3.17-4.19q1.81,0,1.81-1.57a1.51,1.51,0,0,0-.45-1.18,2,2,0,0,0-1.36-.41h-2.1v3.16Z"/><path d="M47.38,77.41a.28.28,0,0,1-.07-.2V69.38a.3.3,0,0,1,.07-.21.25.25,0,0,1,.19-.08h.58a.27.27,0,0,1,.29.29v3.34h4.18V69.38a.28.28,0,0,1,.08-.21.27.27,0,0,1,.2-.08h.58a.27.27,0,0,1,.29.29v7.84a.26.26,0,0,1-.08.2.29.29,0,0,1-.2.08h-.58a.27.27,0,0,1-.28-.28V73.76H48.44v3.46a.26.26,0,0,1-.08.2.29.29,0,0,1-.2.08h-.58A.25.25,0,0,1,47.38,77.41Z"/><path d="M56.53,77.41a.28.28,0,0,1-.07-.2V69.37a.28.28,0,0,1,.07-.2.25.25,0,0,1,.19-.08h.6a.25.25,0,0,1,.28.28v7.85a.27.27,0,0,1-.28.28h-.6A.25.25,0,0,1,56.53,77.41Z"/><path d="M60.88,76.74A3.51,3.51,0,0,1,60,74.36q0-.32,0-1.06t0-1.08a3.51,3.51,0,0,1,.89-2.38A3.21,3.21,0,0,1,63.31,69a4,4,0,0,1,1.81.38,2.68,2.68,0,0,1,1.54,2.3.22.22,0,0,1-.08.17.28.28,0,0,1-.19.07h-.6a.29.29,0,0,1-.19-.06.37.37,0,0,1-.11-.2,2,2,0,0,0-.74-1.3A2.49,2.49,0,0,0,63.31,70q-2.09,0-2.17,2.33,0,.32,0,1t0,1q.08,2.32,2.17,2.32a2.5,2.5,0,0,0,1.44-.37A2,2,0,0,0,65.49,75a.38.38,0,0,1,.11-.2.29.29,0,0,1,.19-.06h.6a.28.28,0,0,1,.19.07.22.22,0,0,1,.08.17,2.68,2.68,0,0,1-1.54,2.3,4,4,0,0,1-1.81.38A3.21,3.21,0,0,1,60.88,76.74Z"/><path d="M72.51,77.41a.28.28,0,0,1-.07-.2V69.38a.3.3,0,0,1,.07-.21.25.25,0,0,1,.19-.08h2.71A3.58,3.58,0,0,1,78,69.9a3.41,3.41,0,0,1,.83,2.44q0,.35,0,.94t0,.95a4.54,4.54,0,0,1-.37,1.85,2.2,2.2,0,0,1-1.07,1.06,4.57,4.57,0,0,1-1.94.35H72.7A.25.25,0,0,1,72.51,77.41Zm2.9-.92a3.19,3.19,0,0,0,1.34-.23,1.43,1.43,0,0,0,.72-.73,3.63,3.63,0,0,0,.25-1.35q0-.72,0-.9t0-.89a2.51,2.51,0,0,0-.57-1.76,2.43,2.43,0,0,0-1.79-.56H73.57v6.42Z"/><path d="M81.37,77.41a.28.28,0,0,1-.07-.2V69.38a.3.3,0,0,1,.07-.21.25.25,0,0,1,.19-.08h4.93a.27.27,0,0,1,.29.29v.43a.25.25,0,0,1-.08.19.3.3,0,0,1-.21.07H82.4v2.68h3.83a.27.27,0,0,1,.29.29v.41a.27.27,0,0,1-.08.2.28.28,0,0,1-.21.08H82.4v2.77h4.19a.27.27,0,0,1,.29.29v.43a.26.26,0,0,1-.08.2.29.29,0,0,1-.2.08h-5A.25.25,0,0,1,81.37,77.41Z"/><path d="M90.12,77.3a2.62,2.62,0,0,1-1.1-.82,1.94,1.94,0,0,1-.4-1.1.23.23,0,0,1,.07-.17.24.24,0,0,1,.18-.07h.59a.31.31,0,0,1,.3.24,1.44,1.44,0,0,0,.62.87,2.48,2.48,0,0,0,1.46.37,2.63,2.63,0,0,0,1.52-.36,1.16,1.16,0,0,0,.5-1,1,1,0,0,0-.25-.67,2,2,0,0,0-.73-.46q-.49-.2-1.46-.49A7.24,7.24,0,0,1,90,73.07a2.18,2.18,0,0,1-.82-.74,2,2,0,0,1-.28-1.11,2,2,0,0,1,.35-1.16,2.33,2.33,0,0,1,1-.8A3.81,3.81,0,0,1,91.77,69a3.57,3.57,0,0,1,1.6.33,2.63,2.63,0,0,1,1,.83,1.9,1.9,0,0,1,.37,1,.25.25,0,0,1-.25.25h-.6a.3.3,0,0,1-.18-.06.33.33,0,0,1-.12-.18,1.21,1.21,0,0,0-.58-.85A2.23,2.23,0,0,0,91.77,70a2.32,2.32,0,0,0-1.3.32,1.06,1.06,0,0,0-.48.94,1,1,0,0,0,.22.68,1.86,1.86,0,0,0,.68.47,12.09,12.09,0,0,0,1.35.47,9.66,9.66,0,0,1,1.6.58,2.19,2.19,0,0,1,.87.71,1.92,1.92,0,0,1,.29,1.1A2.06,2.06,0,0,1,94.15,77a3.85,3.85,0,0,1-2.32.63A4.31,4.31,0,0,1,90.12,77.3Z"/><path d="M97.27,77.41a.28.28,0,0,1-.07-.2V69.37a.28.28,0,0,1,.07-.2.25.25,0,0,1,.19-.08h.6a.25.25,0,0,1,.28.28v7.85a.27.27,0,0,1-.28.28h-.6A.25.25,0,0,1,97.27,77.41Z"/><path d="M101.66,76.75a3.37,3.37,0,0,1-.92-2.34q0-.36,0-1.13t0-1.13a3.27,3.27,0,0,1,.92-2.32,3.31,3.31,0,0,1,2.43-.86,3.81,3.81,0,0,1,1.79.38,3,3,0,0,1,1.1.92,2,2,0,0,1,.4,1v0a.2.2,0,0,1-.08.16.26.26,0,0,1-.17.07h-.67a.24.24,0,0,1-.16,0,.44.44,0,0,1-.1-.18,2,2,0,0,0-.71-.95,2.28,2.28,0,0,0-1.39-.38,2.19,2.19,0,0,0-1.58.55,2.37,2.37,0,0,0-.61,1.7q0,.35,0,1.07t0,1.07a2.39,2.39,0,0,0,.61,1.72,2.19,2.19,0,0,0,1.58.55,2.33,2.33,0,0,0,1.63-.56,2.15,2.15,0,0,0,.61-1.67v-.52h-1.84a.26.26,0,0,1-.2-.08.29.29,0,0,1-.08-.2v-.36a.29.29,0,0,1,.08-.2.26.26,0,0,1,.2-.08h2.69a.27.27,0,0,1,.29.29v1.14a3.52,3.52,0,0,1-.4,1.71,2.75,2.75,0,0,1-1.17,1.14,3.85,3.85,0,0,1-1.81.4A3.28,3.28,0,0,1,101.66,76.75Z"/><path d="M109.87,77.41a.28.28,0,0,1-.07-.2V69.38a.3.3,0,0,1,.07-.21.25.25,0,0,1,.19-.08h.53a.29.29,0,0,1,.18,0l.12.12,4,6.19V69.38a.28.28,0,0,1,.08-.21.27.27,0,0,1,.2-.08h.54a.27.27,0,0,1,.29.29V77.2a.29.29,0,0,1-.08.2.26.26,0,0,1-.2.08h-.54a.3.3,0,0,1-.29-.17l-4-6.13v6a.27.27,0,0,1-.28.28h-.55A.25.25,0,0,1,109.87,77.41Z"/><path d="M118.78,77.41a.28.28,0,0,1-.07-.2V69.38a.3.3,0,0,1,.07-.21.25.25,0,0,1,.19-.08h4.93a.27.27,0,0,1,.29.29v.43a.25.25,0,0,1-.08.19.3.3,0,0,1-.21.07h-4.09v2.68h3.83a.27.27,0,0,1,.29.29v.41a.27.27,0,0,1-.08.2.28.28,0,0,1-.21.08h-3.83v2.77H124a.27.27,0,0,1,.29.29v.43a.26.26,0,0,1-.08.2.29.29,0,0,1-.2.08h-5A.25.25,0,0,1,118.78,77.41Z"/><path d="M126.64,77.41a.28.28,0,0,1-.07-.2V69.38a.3.3,0,0,1,.07-.21.25.25,0,0,1,.19-.08h2.93a3.26,3.26,0,0,1,2.14.64,2.29,2.29,0,0,1,.77,1.87A2.23,2.23,0,0,1,131,73.91l1.85,3.2a.3.3,0,0,1,0,.13.25.25,0,0,1-.24.24h-.53a.43.43,0,0,1-.28-.08.78.78,0,0,1-.19-.24l-1.76-3.07H127.7v3.12a.26.26,0,0,1-.08.2.29.29,0,0,1-.2.08h-.58A.25.25,0,0,1,126.64,77.41Zm3.07-4.3q1.81,0,1.81-1.52t-1.81-1.52h-2v3Z"/></g></svg>