<svg id="Layer_1" data-name="Layer 1" xmlns="http://www.w3.org/2000/svg" viewBox="0 0 993.99 127.47"><defs><style>.cls-1{isolation:isolate;}</style></defs><title>Artboard 1</title><g class="cls-1"><g class="cls-1"><path d="M.14,115.28a10.88,10.88,0,1,1,12.48,9A10.88,10.88,0,0,1,.14,115.28Zm50.61-79.5V91.51a42,42,0,0,1-2.24,13.31,33.53,33.53,0,0,1-6.39,11.52,31.76,31.76,0,0,1-11,8.19,35.24,35.24,0,0,1-14.76,2.94c-.79,0-1.54,0-2.25-.1l0-1.07c4.41-1,8.24-2.54,10.42-4.52a10.9,10.9,0,0,0,3.87-6.27q1.25-4.8,1.25-20.86V50.43a7.85,7.85,0,0,0-1-3.93A8.57,8.57,0,0,0,26,43.64a13.64,13.64,0,0,0-3.87-1.57,27.56,27.56,0,0,0-4.7-.93V36.48l32.32-1.66Zm-24.13-24A11.74,11.74,0,1,1,38.36,23.49,11.74,11.74,0,0,1,26.62,11.74Z"/><path d="M126.93,84.16A39,39,0,0,1,121.53,91a32.78,32.78,0,0,1-7.2,5.54,39.43,39.43,0,0,1-8.67,3.68,36.9,36.9,0,0,1-10.08,1.25,44.9,44.9,0,0,1-16.35-2.69,32.08,32.08,0,0,1-11.36-7.23,28.94,28.94,0,0,1-6.69-10.72A39.57,39.57,0,0,1,59,67.46a33.64,33.64,0,0,1,9.22-23.16,32.62,32.62,0,0,1,11-7.36A37.5,37.5,0,0,1,94,34.12c.67,0,1.32,0,2,0v1A19.88,19.88,0,0,0,83.8,47.29h0A43.46,43.46,0,0,0,81.95,60.1v5.38q0,13.12,5.06,20t16.06,6.85A18.66,18.66,0,0,0,113.88,89a30.86,30.86,0,0,0,8.19-8.35ZM98,41.09,98,40a22.43,22.43,0,0,1,8.2-4.47c.88.24,1.74.49,2.53.78a26,26,0,0,1,9.53,6,21.81,21.81,0,0,1,5.31,8.61,32.46,32.46,0,0,1,1.66,10.4v4.16H87.3V60l15.19-.21q0-3.84-.38-7.87a26.25,26.25,0,0,0-1.34-6.59A10.4,10.4,0,0,0,98,41.09Z"/></g><g class="cls-1"><path d="M167.62,94.79a14.33,14.33,0,0,0,2.78.64v4.67H132.08V95.43c1.11-.09,2.2-.19,3.26-.32a11.38,11.38,0,0,0,2.75-.64,5,5,0,0,0,2.81-2.21,8.07,8.07,0,0,0,.77-3.8V51.21a8.14,8.14,0,0,0-1.09-4,9,9,0,0,0-2.62-3,10.59,10.59,0,0,0-2.91-1.28,20.57,20.57,0,0,0-3.87-.7V37.51l30.52-1.66,1,1V87.75a10.27,10.27,0,0,0,.58,3.71,4.48,4.48,0,0,0,2,2.3A14.37,14.37,0,0,0,167.62,94.79Zm48.92.64v4.67h-38V95.43q1.4-.19,2.92-.32a6.92,6.92,0,0,0,2.54-.64,3.07,3.07,0,0,0,1.78-2.14,16.19,16.19,0,0,0,.38-3.87V58.57q0-6.59-2.34-9.89a7.72,7.72,0,0,0-6.71-3.29,13.07,13.07,0,0,0-4.91.86,18.8,18.8,0,0,0-3.71,2l-.89-.47,0-5.38a40.38,40.38,0,0,1,4.91-3.72A23.7,23.7,0,0,1,178.88,36a30.54,30.54,0,0,1,8.29-1.09q9.66,0,14.88,5.7t5.22,16.19v31.1a8.74,8.74,0,0,0,.7,3.81,4.67,4.67,0,0,0,2.56,2.21,22.56,22.56,0,0,0,2.53.9A18.6,18.6,0,0,0,216.55,95.43Z"/><path d="M256,94.79a14.33,14.33,0,0,0,2.78.64v4.67H220.43V95.43c1.11-.09,2.2-.19,3.26-.32a11.38,11.38,0,0,0,2.75-.64,5,5,0,0,0,2.81-2.21,8.07,8.07,0,0,0,.77-3.8V51.21a8.14,8.14,0,0,0-1.09-4,9,9,0,0,0-2.62-3,10.59,10.59,0,0,0-2.91-1.28,20.57,20.57,0,0,0-3.87-.7V37.51l30.52-1.66,1,1V87.75a10.27,10.27,0,0,0,.58,3.71,4.48,4.48,0,0,0,2,2.3A14.37,14.37,0,0,0,256,94.79Zm48.92.64v4.67h-38V95.43q1.4-.19,2.92-.32a6.92,6.92,0,0,0,2.54-.64,3.07,3.07,0,0,0,1.78-2.14,16.19,16.19,0,0,0,.38-3.87V58.57q0-6.59-2.34-9.89a7.72,7.72,0,0,0-6.71-3.29,13.07,13.07,0,0,0-4.91.86,18.8,18.8,0,0,0-3.71,2l-.89-.47,0-5.38a40.38,40.38,0,0,1,4.91-3.72A23.7,23.7,0,0,1,267.24,36a30.54,30.54,0,0,1,8.29-1.09q9.66,0,14.88,5.7t5.22,16.19v31.1a8.74,8.74,0,0,0,.7,3.81,4.67,4.67,0,0,0,2.56,2.21,22.56,22.56,0,0,0,2.53.9A18.6,18.6,0,0,0,304.9,95.43Z"/><path d="M342.69,60.6l1.35.72v4.53c-1.26.49-2.51,1-3.76,1.56a28.37,28.37,0,0,0-5.78,3.31,12.39,12.39,0,0,0-3.72,4.59,14.92,14.92,0,0,0-1.35,6.58q0,5,2.28,7.25a7.69,7.69,0,0,0,5.62,2.25A10.75,10.75,0,0,0,343.08,90l1,.51v4.77c-.27.22-.55.47-.83.68a24.17,24.17,0,0,1-4.32,2.62,32.57,32.57,0,0,1-5.8,2.11,33.45,33.45,0,0,1-7.79.7A19.15,19.15,0,0,1,312.61,97a14.4,14.4,0,0,1-5.26-11.63,19.24,19.24,0,0,1,1.15-7.08,16,16,0,0,1,3.27-5.16,17,17,0,0,1,4.45-3.4,49.11,49.11,0,0,1,5.55-2.5q5.77-2.12,13.84-4.39C338.39,62,340.71,61.29,342.69,60.6ZM311,49.72A10.83,10.83,0,0,1,315.49,41l0,0s7.87-6.46,26.82-6.71l1.42.75v2.19s-10.9,2.44-10.9,12.21l0,0c0,.11,0,.21,0,.32a10.88,10.88,0,0,1-21.76,0Zm68.11,43.56V98a48.35,48.35,0,0,1-6.64,2.24,31.3,31.3,0,0,1-8.11,1q-7.86,0-11.56-2.33a11.71,11.71,0,0,1-5-6.69l-.34-35.47V34.39c1,.1,2.11.17,3.1.31a26.93,26.93,0,0,1,9.34,3,16.22,16.22,0,0,1,6.3,6.5q2.34,4.26,2.34,11.1,0,7.23-.29,17.15T368,85.54a9.94,9.94,0,0,0,.86,4.54,5.5,5.5,0,0,0,2.66,2.5,9.46,9.46,0,0,0,3.42.61Q377.24,93.29,379.16,93.29Z"/></g><g class="cls-1"><path d="M461.44,95a14.24,14.24,0,0,0,2.78.64v4.67H425.89V95.64q1.66-.13,3.26-.32a11.36,11.36,0,0,0,2.75-.64,5,5,0,0,0,2.82-2.21,8.1,8.1,0,0,0,.77-3.81V51.42a8.12,8.12,0,0,0-1.09-4,9,9,0,0,0-2.62-3,10.6,10.6,0,0,0-2.91-1.28,20.56,20.56,0,0,0-3.87-.71V37.72l30.52-1.66,1,1V88a10.27,10.27,0,0,0,.58,3.71,4.47,4.47,0,0,0,2,2.3A14,14,0,0,0,461.44,95Zm44.49,0a18.45,18.45,0,0,0,3.49.64v4.67h-38V95.64c.93-.13,1.9-.23,2.92-.32a6.9,6.9,0,0,0,2.54-.64,3.07,3.07,0,0,0,1.78-2.14,16.2,16.2,0,0,0,.38-3.87V58.78q0-6.59-2.34-9.89a7.72,7.72,0,0,0-6.71-3.3,13.07,13.07,0,0,0-4.91.86,19.06,19.06,0,0,0-3.71,2l-.89-.48,0-5.37a40.56,40.56,0,0,1,4.91-3.73,23.74,23.74,0,0,1,6.37-2.69A30.54,30.54,0,0,1,480,35.1q9.66,0,14.88,5.7T500.14,57v31.1a8.72,8.72,0,0,0,.71,3.81,4.67,4.67,0,0,0,2.56,2.21A22.4,22.4,0,0,0,505.93,95Zm47.11.64v4.67H515V95.64c.93-.13,1.9-.23,2.92-.32a6.93,6.93,0,0,0,2.54-.64,3.09,3.09,0,0,0,1.78-2.14,16.37,16.37,0,0,0,.38-3.87V58.78q0-6.59-2.34-9.89a7.73,7.73,0,0,0-6.71-3.3,13.08,13.08,0,0,0-4.91.86,19,19,0,0,0-3.71,2l-.89-.48,0-5.38A41.15,41.15,0,0,1,509,38.88a23.73,23.73,0,0,1,6.37-2.69,30.54,30.54,0,0,1,8.29-1.09q9.66,0,14.88,5.7T543.76,57v31.1a8.72,8.72,0,0,0,.71,3.81A4.67,4.67,0,0,0,547,94.1a22.33,22.33,0,0,0,2.53.9A18.47,18.47,0,0,0,553,95.64Z"/></g><g class="cls-1"><path d="M598.15,95.64v4.67H557.71V95.64q1.67-.13,3.27-.32a11.37,11.37,0,0,0,2.75-.64,5.31,5.31,0,0,0,2.88-2.21,7.57,7.57,0,0,0,.83-3.81V51.42a7.46,7.46,0,0,0-1-3.93,8.48,8.48,0,0,0-2.56-2.72,13.62,13.62,0,0,0-3.49-1.47,22.77,22.77,0,0,0-4.26-.9V37.73l31.36-1.66,1,1V87.83a7.16,7.16,0,0,0,1,3.81A5.8,5.8,0,0,0,592.14,94,20.9,20.9,0,0,0,595,95,19.1,19.1,0,0,0,598.15,95.64ZM564.43,13a11.74,11.74,0,1,1,11.74,11.74A11.74,11.74,0,0,1,564.43,13Z"/></g><g class="cls-1"><path d="M662.86,83.3a36.43,36.43,0,0,1-4.74,7.14,30.24,30.24,0,0,1-6.59,5.73,34.44,34.44,0,0,1-8.19,4,31.49,31.49,0,0,1-9.66,1.34A44,44,0,0,1,618,98.88a30.91,30.91,0,0,1-11.23-7.07,28.94,28.94,0,0,1-6.59-10.75A40.56,40.56,0,0,1,598,67.56a31,31,0,0,1,2.66-12.67,33.3,33.3,0,0,1,18.81-18,40.35,40.35,0,0,1,14.1-2.73l.14.93c-2.59,2.44-9.08,9-10.39,15.39h0c-.33,1.06-.65,2.17-.92,3.4a61,61,0,0,0-1.18,12.93q0,11.39,5.34,18.37t12.77,7q7.1,0,11.29-3.17a28.49,28.49,0,0,0,7.46-9ZM638,40.78h0l.38-2.07,4.18-4c12.06,1.5,15.75,8.86,15.75,8.86h0a10.88,10.88,0,1,1-19.93,6A22.38,22.38,0,0,0,638,40.78Z"/></g><g class="cls-1"><path d="M700.67,95a20.9,20.9,0,0,0,3,.64v4.67h-39V95.64q1.67-.13,3.25-.32a12.52,12.52,0,0,0,2.8-.64,4.86,4.86,0,0,0,2.8-2.21,8.32,8.32,0,0,0,.74-3.81V17.31a11.31,11.31,0,0,0-1-4.35,7.45,7.45,0,0,0-2.69-3.46,10.81,10.81,0,0,0-3.71-1.31,34.89,34.89,0,0,0-4.35-.61V2.91l31.87-1.66,1,1V88A9.91,9.91,0,0,0,696,91.7,4.71,4.71,0,0,0,698.14,94,10.49,10.49,0,0,0,700.67,95Zm48.6.64v4.67H710.81V95.64l3-.32a7.36,7.36,0,0,0,2.56-.64,3.92,3.92,0,0,0,1.89-2,11.1,11.1,0,0,0,.54-4V58.72q0-6.59-2.46-9.85a8.26,8.26,0,0,0-7-3.26,14.4,14.4,0,0,0-4.77.77,17.85,17.85,0,0,0-4.32,2.24l-.07.05-.94-.5.09-5.17.7-.63a36.11,36.11,0,0,1,4.76-3.55,23,23,0,0,1,6.17-2.62,29.72,29.72,0,0,1,8.21-1.09q10.35,0,15.56,6t5.21,15.68V88.09a8.53,8.53,0,0,0,.7,3.78,5,5,0,0,0,2.62,2.24,18,18,0,0,0,2.56.9A25.34,25.34,0,0,0,749.27,95.64Z"/></g><g class="cls-1"><path d="M787.12,60.6l1.35.72v4.53c-1.26.49-2.51,1-3.76,1.56a28.37,28.37,0,0,0-5.78,3.31,12.4,12.4,0,0,0-3.72,4.59,14.92,14.92,0,0,0-1.35,6.58q0,5,2.28,7.25a7.69,7.69,0,0,0,5.62,2.25A10.75,10.75,0,0,0,787.51,90l1,.51v4.77c-.27.22-.55.47-.83.68a24.16,24.16,0,0,1-4.32,2.62,32.58,32.58,0,0,1-5.8,2.11,33.46,33.46,0,0,1-7.79.7A19.15,19.15,0,0,1,757,97a14.4,14.4,0,0,1-5.26-11.63,19.25,19.25,0,0,1,1.15-7.08,16.05,16.05,0,0,1,3.27-5.16,16.94,16.94,0,0,1,4.45-3.4,49.12,49.12,0,0,1,5.55-2.5q5.77-2.12,13.84-4.39C782.82,62,785.14,61.29,787.12,60.6ZM755.48,49.72A10.84,10.84,0,0,1,759.92,41l0,0s7.87-6.46,26.82-6.71l1.42.75v2.19s-10.9,2.44-10.9,12.21l0,0c0,.11,0,.21,0,.32a10.88,10.88,0,0,1-21.76,0Zm68.11,43.56V98a48.35,48.35,0,0,1-6.64,2.24,31.3,31.3,0,0,1-8.11,1q-7.86,0-11.56-2.33a11.7,11.7,0,0,1-5-6.69l-.34-35.47V34.39c1,.1,2.11.17,3.1.31a26.94,26.94,0,0,1,9.34,3,16.23,16.23,0,0,1,6.3,6.5Q813,48.49,813,55.34q0,7.23-.29,17.15t-.29,13.05a10,10,0,0,0,.86,4.54,5.5,5.5,0,0,0,2.66,2.5,9.46,9.46,0,0,0,3.42.61Q821.67,93.29,823.59,93.29Z"/></g><g class="cls-1"><path d="M891.45,84.16A38.94,38.94,0,0,1,886,91a32.78,32.78,0,0,1-7.2,5.54,39.42,39.42,0,0,1-8.67,3.68,36.9,36.9,0,0,1-10.08,1.25,44.89,44.89,0,0,1-16.35-2.69,32.07,32.07,0,0,1-11.36-7.23,28.94,28.94,0,0,1-6.69-10.72,39.55,39.55,0,0,1-2.21-13.41,33.64,33.64,0,0,1,9.22-23.16,32.62,32.62,0,0,1,11-7.36,37.5,37.5,0,0,1,14.81-2.82c.67,0,1.32,0,2,0v1a19.88,19.88,0,0,0-12.13,12.17h0a43.43,43.43,0,0,0-1.85,12.81v5.38q0,13.12,5.06,20t16.06,6.85A18.66,18.66,0,0,0,878.4,89a30.86,30.86,0,0,0,8.19-8.35ZM862.57,41.09l-.09-1.1a22.43,22.43,0,0,1,8.21-4.47c.88.24,1.74.49,2.53.78a26,26,0,0,1,9.54,6,21.81,21.81,0,0,1,5.31,8.61,32.47,32.47,0,0,1,1.66,10.4v4.16H851.82V60L867,59.84q0-3.84-.38-7.87a26.28,26.28,0,0,0-1.34-6.59A10.4,10.4,0,0,0,862.57,41.09Z"/><path d="M932,95.64v4.67H891.68V95.64q1.68-.13,3.25-.32a12.55,12.55,0,0,0,2.8-.64,4.87,4.87,0,0,0,2.8-2.21,8.35,8.35,0,0,0,.74-3.81V17.76a10.34,10.34,0,0,0-1-4.51,7.54,7.54,0,0,0-2.65-3.17,15.45,15.45,0,0,0-3.87-1.6,21.25,21.25,0,0,0-4.58-.9V2.91l32.25-1.66,1,1V87.83a7.69,7.69,0,0,0,.84,3.84,5.59,5.59,0,0,0,2.71,2.3,25,25,0,0,0,2.7,1A16.67,16.67,0,0,0,932,95.64Z"/><path d="M994,79.8q0,10.5-8.22,16.25t-21.47,5.76a39.52,39.52,0,0,1-4-.23l-.05-.66c8.26-2.76,11.75-6.2,13.06-8l.07-.09a6.1,6.1,0,0,0,.68-1.17l0,0a10.37,10.37,0,0,0,.91-4.47,6.73,6.73,0,0,0-1.28-4.22,10.94,10.94,0,0,0-3.52-2.88,32.76,32.76,0,0,0-5.47-2.18l-7.33-2.17a69.58,69.58,0,0,1-7.46-2.59A25.38,25.38,0,0,1,943.43,69a18.06,18.06,0,0,1-6.33-14.4A17.29,17.29,0,0,1,944.68,40q7.58-5.56,19.87-5.56a46.18,46.18,0,0,1,6.92.56v.85c-10,1.76-13.73,7.43-13.73,7.43h0a6.78,6.78,0,0,0-1.46,4.39,7.38,7.38,0,0,0,4.12,7,55,55,0,0,0,11.53,4.1q11.43,2.94,16.74,8A17.18,17.18,0,0,1,994,79.8Zm-31.81,9.7a11.74,11.74,0,1,1-11.74-11.74A11.74,11.74,0,0,1,962.17,89.5ZM970,47a10.88,10.88,0,1,1,10.88,10.88A10.88,10.88,0,0,1,970,47Z"/></g></g></svg>