<svg enable-background="new 0 0 319.1 319.1" viewBox="0 0 319.1 319.1" xmlns="http://www.w3.org/2000/svg" xmlns:xlink="http://www.w3.org/1999/xlink"><clipPath id="a"><path d="m0 0h319.1v319.1h-319.1z"/></clipPath><g clip-path="url(#a)"><path d="m-221.2 364.9c-52.1-32.7-12.1-199 89.4-310.5 20.5-22.4 171.7-188.5 311.9-136.3 113.9 42.4 161.3 206.3 105.9 289.1-45 67.1-123.6 30.2-379.5 126.5-75.3 28.3-105.2 45.3-127.7 31.2z" stroke="#000" stroke-miterlimit="10"/><g fill="#fff"><path d="m54 189c-1-5.9 3-11.4 8.9-12.4s11.4 3 12.4 8.9-3 11.4-8.9 12.4c-5.9.9-11.4-3-12.4-8.9zm50.1-78.7v55.2c0 4.5-.8 8.9-2.2 13.2-1.3 4.2-3.5 8-6.3 11.4-3 3.5-6.7 6.2-10.9 8.1-4.6 2-9.6 3-14.6 2.9-.7 0-1.5 0-2.2-.1v-1.1c4.4-1 8.2-2.5 10.3-4.5 2-1.5 3.3-3.7 3.9-6.2.8-3.2 1.2-10.1 1.2-20.6v-43.7c0-1.4-.3-2.7-1-3.9-.6-1.1-1.5-2.1-2.6-2.8-1.2-.7-2.4-1.2-3.8-1.6-1.5-.4-3.1-.7-4.7-.9v-4.7l32-1.7zm-23.9-23.8c0-6.4 5.2-11.6 11.6-11.6s11.6 5.2 11.6 11.6-5.2 11.6-11.6 11.6c-6.4.1-11.6-5.1-11.6-11.6z"/><path d="m153.5 169c.9.3 1.8.5 2.8.6v4.6h-37.9v-4.7c1.1-.1 2.2-.2 3.2-.3.9-.1 1.8-.3 2.7-.6 1.2-.4 2.2-1.1 2.8-2.2.5-1.2.8-2.5.7-3.8v-36.9c0-1.4-.4-2.8-1.1-4-.6-1.2-1.5-2.2-2.6-3-.9-.6-1.9-1-2.9-1.3-1.3-.4-2.5-.6-3.8-.7v-4.6l30.2-1.7.9 1v50.6c0 1.2.2 2.5.6 3.7.4 1 1.1 1.8 2 2.3.9.4 1.6.7 2.4 1zm44 0c1.1.3 2.3.5 3.4.6v4.6h-37.5v-4.7c.9-.1 1.9-.2 2.9-.3.9 0 1.7-.3 2.5-.6.9-.4 1.6-1.2 1.8-2.1.3-1.3.4-2.5.4-3.8v-29.6c0-4.3-.8-7.6-2.3-9.8s-4-3.4-6.6-3.3c-1.7 0-3.3.3-4.9.9-1.3.5-2.5 1.2-3.7 2l-.9-.5v-5.3c1.5-1.4 3.1-2.6 4.9-3.7 2-1.2 4.1-2.1 6.3-2.7 2.7-.7 5.4-1.1 8.2-1.1 6.4 0 11.3 1.9 14.7 5.6 3.4 3.8 5.2 9.1 5.2 16v30.8c-.1 1.3.2 2.6.7 3.8.5 1 1.4 1.8 2.5 2.2.8.4 1.7.7 2.4 1zm46.7.6v4.6h-37.5v-4.7c.9-.1 1.9-.2 2.9-.3.9 0 1.7-.3 2.5-.6.9-.4 1.6-1.2 1.8-2.1.3-1.3.4-2.5.4-3.8v-29.6c0-4.3-.8-7.6-2.3-9.8s-4-3.4-6.6-3.3c-1.7 0-3.3.3-4.9.9-1.3.5-2.5 1.2-3.7 2l-.9-.5v-5.3c1.5-1.3 3.2-2.6 4.9-3.7 2-1.2 4.1-2.1 6.3-2.7 2.7-.7 5.4-1.1 8.2-1.1 6.4 0 11.3 1.9 14.7 5.6 3.4 3.8 5.2 9.1 5.2 16v30.8c-.1 1.3.2 2.6.7 3.8.5 1 1.4 1.8 2.5 2.2.8.3 1.6.6 2.5.9 1 .4 2.2.6 3.3.7z"/></g></g></svg>