<svg id="logo-svg" data-name="Layer 1" xmlns="http://www.w3.org/2000/svg" viewBox="0 0 222.56 73.82">
<title>Jenna Michaels Logo</title>
<!-- animation: start at #fff and end at #000 -->
<style>
    path {
        animation-name: pathFillMode;
        animation-duration: 3.5s;
        animation-iteration-count: 1;
        animation-fill-mode: forwards;
    }
    @keyframes pathFillMode {
        0%   { fill: #ffffff; }
        100% { fill: #000000; }
    }
</style>
<!-- J -->
<path d="M.08,66.75A6.3,6.3,0,1,1,7.31,72,6.3,6.3,0,0,1,.08,66.75Zm29.3-46V53a24.3,24.3,0,0,1-1.29,7.71,19.41,19.41,0,0,1-3.7,6.67A18.39,18.39,0,0,1,18,72.11a20.41,20.41,0,0,1-8.55,1.7c-.46,0-.89,0-1.31-.06v-.62a14.14,14.14,0,0,0,6-2.62,6.31,6.31,0,0,0,2.24-3.63q.72-2.78.72-12.08V29.2a4.56,4.56,0,0,0-.56-2.28,5,5,0,0,0-1.52-1.65,7.88,7.88,0,0,0-2.24-.91,15.94,15.94,0,0,0-2.72-.54V21.12l18.71-1ZM15.42,6.8a6.8,6.8,0,1,1,6.8,6.8A6.8,6.8,0,0,1,15.42,6.8Z"/>
<!-- E -->
<path 
d="M77.45,45.52A22.56,22.56,0,0,1,75,49.94a19,19,0,0,1-3.61,3.82,22.92,22.92,0,0,1-4.62,2.9,21.39,21.39,0,0,1-5.65,1.63,26,26,0,0,1-9.59,0,18.59,18.59,0,0,1-7.16-3.1,16.77,16.77,0,0,1-4.8-5.52,22.92,22.92,0,0,1-2.49-7.46,19.48,19.48,0,0,1,3.16-14.09,18.89,18.89,0,0,1,5.6-5.21,21.71,21.71,0,0,1,8.21-3l1.12-.15.09.55a11.52,11.52,0,0,0-5.83,8.07h0a25.19,25.19,0,0,0,.11,7.5L50,38.93q1.2,7.5,4.71,11t9.81,2.45a10.81,10.81,0,0,0,5.88-2.87,17.87,17.87,0,0,0,3.92-5.52ZM57,23.52l-.15-.62a13,13,0,0,1,4.28-3.31c.53.06,1,.12,1.52.22a15.1,15.1,0,0,1,6,2.57,12.62,12.62,0,0,1,3.82,4.44,18.8,18.8,0,0,1,1.9,5.79L74.75,35,53.08,38.45l-.49-3.1,8.67-1.5q-.35-2.19-.94-4.47a15.22,15.22,0,0,0-1.37-3.65A6,6,0,0,0,57,23.52Z"/>
<!-- N -->
<path d="M101.07,54.89a8.32,8.32,0,0,0,1.61.37V58H80.48V55.26c.64-.05,1.27-.11,1.89-.19A6.61,6.61,0,0,0,84,54.7a2.88,2.88,0,0,0,1.63-1.28,4.67,4.67,0,0,0,.45-2.2V29.65a4.7,4.7,0,0,0-.63-2.32,5.23,5.23,0,0,0-1.52-1.76,6.13,6.13,0,0,0-1.69-.74A11.86,11.86,0,0,0,80,24.43V21.72l17.68-1,.56.55v29.5A6,6,0,0,0,98.53,53a2.6,2.6,0,0,0,1.19,1.33A8.34,8.34,0,0,0,101.07,54.89Zm28.33.37V58h-22V55.26q.81-.11,1.69-.18a4,4,0,0,0,1.47-.37,1.78,1.78,0,0,0,1-1.24,9.41,9.41,0,0,0,.22-2.24V33.92a9.89,9.89,0,0,0-1.36-5.73,4.47,4.47,0,0,0-3.88-1.91,7.56,7.56,0,0,0-2.84.5,10.9,10.9,0,0,0-2.15,1.16l-.52-.27V24.55a23.43,23.43,0,0,1,2.84-2.16,13.77,13.77,0,0,1,3.69-1.56,17.7,17.7,0,0,1,4.8-.63q5.6,0,8.62,3.3t3,9.37v18a5.06,5.06,0,0,0,.41,2.21,2.7,2.7,0,0,0,1.48,1.28,13,13,0,0,0,1.46.52A10.74,10.74,0,0,0,129.4,55.26Z"/>
<!-- N -->
<path d="M149.22,54.89a8.32,8.32,0,0,0,1.61.37V58h-22.2V55.26c.64-.05,1.27-.11,1.89-.19a6.61,6.61,0,0,0,1.59-.37,2.88,2.88,0,0,0,1.63-1.28,4.67,4.67,0,0,0,.45-2.2V29.65a4.7,4.7,0,0,0-.63-2.32A5.23,5.23,0,0,0,132,25.58a6.13,6.13,0,0,0-1.69-.74,11.86,11.86,0,0,0-2.24-.41V21.72l17.68-1,.56.55v29.5a6,6,0,0,0,.33,2.15,2.6,2.6,0,0,0,1.19,1.33A8.34,8.34,0,0,0,149.22,54.89Zm28.33.37V58h-22V55.26q.81-.11,1.69-.18a4,4,0,0,0,1.47-.37,1.78,1.78,0,0,0,1-1.24,9.41,9.41,0,0,0,.22-2.24V33.92a9.89,9.89,0,0,0-1.36-5.73,4.47,4.47,0,0,0-3.88-1.91,7.56,7.56,0,0,0-2.84.5,10.9,10.9,0,0,0-2.15,1.16l-.52-.27V24.55a23.43,23.43,0,0,1,2.84-2.16,13.77,13.77,0,0,1,3.69-1.56,17.7,17.7,0,0,1,4.8-.63q5.6,0,8.62,3.3t3,9.37v18a5.06,5.06,0,0,0,.41,2.21,2.7,2.7,0,0,0,1.48,1.28,13,13,0,0,0,1.46.52A10.74,10.74,0,0,0,177.55,55.26Z"/>
<!-- A -->
<path d="M201.44,35.09l.78.42v2.62c-.73.28-1.46.58-2.18.9a16.46,16.46,0,0,0-3.35,1.91,7.19,7.19,0,0,0-2.16,2.66,8.64,8.64,0,0,0-.78,3.81,5.7,5.7,0,0,0,1.32,4.2,4.45,4.45,0,0,0,3.25,1.3,6.22,6.22,0,0,0,3.33-.82l.56.29v2.76c-.16.13-.32.27-.48.39a14.05,14.05,0,0,1-2.5,1.52,18.91,18.91,0,0,1-3.36,1.22,19.38,19.38,0,0,1-4.51.41A11.09,11.09,0,0,1,184,56.15a8.34,8.34,0,0,1-3-6.74,11.16,11.16,0,0,1,.67-4.1,9.29,9.29,0,0,1,1.89-3,9.8,9.8,0,0,1,2.58-2,28.5,28.5,0,0,1,3.21-1.45q3.34-1.23,8-2.54C198.95,35.92,200.29,35.49,201.44,35.09Zm-18.32-6.3a6.27,6.27,0,0,1,2.58-5.06h0s4.55-3.74,15.53-3.88l.82.44v1.27s-6.31,1.41-6.31,7.07h0c0,.06,0,.12,0,.19a6.3,6.3,0,0,1-12.6,0ZM222.56,54v2.7a27.89,27.89,0,0,1-3.85,1.3,18.11,18.11,0,0,1-4.7.59q-4.55,0-6.69-1.35a6.78,6.78,0,0,1-2.92-3.87l-.2-20.54V19.91c.6.06,1.22.1,1.79.18a15.6,15.6,0,0,1,5.41,1.76,9.4,9.4,0,0,1,3.65,3.76A13.32,13.32,0,0,1,216.4,32q0,4.19-.17,9.93t-.17,7.56a5.76,5.76,0,0,0,.5,2.63,3.19,3.19,0,0,0,1.54,1.45,5.5,5.5,0,0,0,2,.35Q221.44,54,222.56,54Z"/>
</svg>