<?xml version="1.0" encoding="utf-8"?>
<!-- Generator: Adobe Illustrator 21.1.0, SVG Export Plug-In . SVG Version: 6.00 Build 0)  -->
<svg version="1.1" id="Layer_2" xmlns="http://www.w3.org/2000/svg" xmlns:xlink="http://www.w3.org/1999/xlink" x="0px" y="0px"
	 viewBox="0 0 319.1 319.1" style="enable-background:new 0 0 319.1 319.1;" xml:space="preserve">
<style type="text/css">
	.st0{clip-path:url(#SVGID_2_);}
	.st1{stroke:#000000;stroke-miterlimit:10;}
	.st2{fill:#FFFFFF;}
</style>
<title>Artboard 1</title>
<g>
	<defs>
		<rect id="SVGID_1_" width="319.1" height="319.1"/>
	</defs>
	<clipPath id="SVGID_2_">
		<use xlink:href="#SVGID_1_"  style="overflow:visible;"/>
	</clipPath>
	<g class="st0">
		<path class="st1" d="M-221.2,364.9c-52.1-32.7-12.1-199,89.4-310.5C-111.3,32,39.9-134.1,180.1-81.9
			C294-39.5,341.4,124.4,286,207.2c-45,67.1-123.6,30.2-379.5,126.5C-168.8,362-198.7,379-221.2,364.9z"/>
		<path class="st2" d="M54,189c-1-5.9,3-11.4,8.9-12.4c5.9-1,11.4,3,12.4,8.9c1,5.9-3,11.4-8.9,12.4c0,0,0,0,0,0l0,0
			C60.5,198.8,55,194.9,54,189z M104.1,110.3v55.2c0,4.5-0.8,8.9-2.2,13.2c-1.3,4.2-3.5,8-6.3,11.4c-3,3.5-6.7,6.2-10.9,8.1
			c-4.6,2-9.6,3-14.6,2.9c-0.7,0-1.5,0-2.2-0.1v-1.1c4.4-1,8.2-2.5,10.3-4.5c2-1.5,3.3-3.7,3.9-6.2c0.8-3.2,1.2-10.1,1.2-20.6v-43.7
			c0-1.4-0.3-2.7-1-3.9c-0.6-1.1-1.5-2.1-2.6-2.8c-1.2-0.7-2.4-1.2-3.8-1.6c-1.5-0.4-3.1-0.7-4.7-0.9V111l32-1.7L104.1,110.3z
			 M80.2,86.5c0-6.4,5.2-11.6,11.6-11.6c6.4,0,11.6,5.2,11.6,11.6c0,6.4-5.2,11.6-11.6,11.6C85.4,98.2,80.2,93,80.2,86.5L80.2,86.5z
			"/>
		<path class="st2" d="M153.5,169c0.9,0.3,1.8,0.5,2.8,0.6v4.6h-37.9v-4.7c1.1-0.1,2.2-0.2,3.2-0.3c0.9-0.1,1.8-0.3,2.7-0.6
			c1.2-0.4,2.2-1.1,2.8-2.2c0.5-1.2,0.8-2.5,0.7-3.8v-36.9c0-1.4-0.4-2.8-1.1-4c-0.6-1.2-1.5-2.2-2.6-3c-0.9-0.6-1.9-1-2.9-1.3
			c-1.3-0.4-2.5-0.6-3.8-0.7v-4.6l30.2-1.7l0.9,1V162c0,1.2,0.2,2.5,0.6,3.7c0.4,1,1.1,1.8,2,2.3C152,168.4,152.7,168.7,153.5,169z
			 M197.5,169c1.1,0.3,2.3,0.5,3.4,0.6v4.6h-37.5v-4.7c0.9-0.1,1.9-0.2,2.9-0.3c0.9,0,1.7-0.3,2.5-0.6c0.9-0.4,1.6-1.2,1.8-2.1
			c0.3-1.3,0.4-2.5,0.4-3.8v-29.6c0-4.3-0.8-7.6-2.3-9.8c-1.5-2.2-4-3.4-6.6-3.3c-1.7,0-3.3,0.3-4.9,0.9c-1.3,0.5-2.5,1.2-3.7,2
			l-0.9-0.5v-5.3c1.5-1.4,3.1-2.6,4.9-3.7c2-1.2,4.1-2.1,6.3-2.7c2.7-0.7,5.4-1.1,8.2-1.1c6.4,0,11.3,1.9,14.7,5.6
			c3.4,3.8,5.2,9.1,5.2,16v30.8c-0.1,1.3,0.2,2.6,0.7,3.8c0.5,1,1.4,1.8,2.5,2.2C195.9,168.4,196.8,168.7,197.5,169L197.5,169z
			 M244.2,169.6v4.6h-37.5v-4.7c0.9-0.1,1.9-0.2,2.9-0.3c0.9,0,1.7-0.3,2.5-0.6c0.9-0.4,1.6-1.2,1.8-2.1c0.3-1.3,0.4-2.5,0.4-3.8
			v-29.6c0-4.3-0.8-7.6-2.3-9.8c-1.5-2.2-4-3.4-6.6-3.3c-1.7,0-3.3,0.3-4.9,0.9c-1.3,0.5-2.5,1.2-3.7,2l-0.9-0.5v-5.3
			c1.5-1.3,3.2-2.6,4.9-3.7c2-1.2,4.1-2.1,6.3-2.7c2.7-0.7,5.4-1.1,8.2-1.1c6.4,0,11.3,1.9,14.7,5.6c3.4,3.8,5.2,9.1,5.2,16v30.8
			c-0.1,1.3,0.2,2.6,0.7,3.8c0.5,1,1.4,1.8,2.5,2.2c0.8,0.3,1.6,0.6,2.5,0.9C241.9,169.3,243.1,169.5,244.2,169.6L244.2,169.6z"/>
	</g>
</g>
</svg>
