<svg xmlns="http://www.w3.org/2000/svg" viewBox="0 0 264.72 157.94"><defs><style>.cls-1{fill:none;stroke:#000;stroke-miterlimit:10;}</style></defs><title>Artboard 1</title><g id="Layer_1" data-name="Layer 1"><path d="M67.23,88.44a7.32,7.32,0,0,1-3.1-2.27A5.36,5.36,0,0,1,63,83.09a.67.67,0,0,1,.19-.46.63.63,0,0,1,.48-.21h2.91a1,1,0,0,1,.58.16,1.73,1.73,0,0,1,.42.45A3.27,3.27,0,0,0,69,84.85a5.69,5.69,0,0,0,3.12.74,6.17,6.17,0,0,0,3.38-.75,2.35,2.35,0,0,0,1.14-2.06,2,2,0,0,0-.58-1.44,4.83,4.83,0,0,0-1.74-1q-1.17-.43-3.47-1a13.6,13.6,0,0,1-5.54-2.37,5.19,5.19,0,0,1-1.76-4.22,5.62,5.62,0,0,1,1-3.31,6.8,6.8,0,0,1,2.93-2.29A11,11,0,0,1,72,66.26a10.53,10.53,0,0,1,4.59.93,7.58,7.58,0,0,1,2.94,2.32,5.14,5.14,0,0,1,1.07,2.77.67.67,0,0,1-.19.46.62.62,0,0,1-.48.21h-3a1,1,0,0,1-1-.58,2.48,2.48,0,0,0-1.25-1.71,5.81,5.81,0,0,0-5.46,0,2.2,2.2,0,0,0-1,2A2.08,2.08,0,0,0,68.7,74a4.16,4.16,0,0,0,1.6,1,29.11,29.11,0,0,0,3.17,1A22.09,22.09,0,0,1,78,77.46a5.9,5.9,0,0,1,2.48,2,5.54,5.54,0,0,1,.8,3.1,5.85,5.85,0,0,1-1.14,3.6,7,7,0,0,1-3.2,2.32,13.19,13.19,0,0,1-4.78.8A12.65,12.65,0,0,1,67.23,88.44Z"/><path d="M91.55,88.76a.74.74,0,0,1-.22-.54V67.38a.81.81,0,0,1,.21-.58.73.73,0,0,1,.56-.22H95a.77.77,0,0,1,.8.8v7.49l7.14-7.71a1.55,1.55,0,0,1,1.25-.58h3.26a.67.67,0,0,1,.46.19.63.63,0,0,1,.21.48.52.52,0,0,1-.16.38l-8.7,9.66,9.34,10.59a.85.85,0,0,1,.13.42.65.65,0,0,1-.19.48.62.62,0,0,1-.45.19H104.7a1.37,1.37,0,0,1-1-.27l-.32-.3L95.77,80v8.26a.74.74,0,0,1-.22.54A.78.78,0,0,1,95,89H92.09A.74.74,0,0,1,91.55,88.76Z"/><path d="M118.21,88.76a.74.74,0,0,1-.22-.54V67.35a.73.73,0,0,1,.22-.56.77.77,0,0,1,.54-.21h3.07a.72.72,0,0,1,.77.77V88.21a.77.77,0,0,1-.21.54.73.73,0,0,1-.56.22h-3.07A.74.74,0,0,1,118.21,88.76Z"/><path d="M134.21,88.76a.74.74,0,0,1-.22-.54V67.35a.73.73,0,0,1,.22-.56.77.77,0,0,1,.54-.21h3a.72.72,0,0,1,.77.77V85.14h10.14a.79.79,0,0,1,.58.22.75.75,0,0,1,.22.54v2.3a.75.75,0,0,1-.22.54.78.78,0,0,1-.58.22H134.75A.74.74,0,0,1,134.21,88.76Z"/><path d="M159.2,88.76a.74.74,0,0,1-.22-.54V67.35a.73.73,0,0,1,.22-.56.77.77,0,0,1,.54-.21h3a.72.72,0,0,1,.77.77V85.14h10.14a.78.78,0,0,1,.58.22.74.74,0,0,1,.22.54v2.3a.74.74,0,0,1-.22.54.78.78,0,0,1-.58.22H159.74A.74.74,0,0,1,159.2,88.76Z"/><path d="M186.85,88.44a7.31,7.31,0,0,1-3.1-2.27,5.36,5.36,0,0,1-1.12-3.07.67.67,0,0,1,.19-.46.63.63,0,0,1,.48-.21h2.91a1,1,0,0,1,.58.16,1.72,1.72,0,0,1,.42.45,3.28,3.28,0,0,0,1.46,1.82,5.69,5.69,0,0,0,3.12.74,6.16,6.16,0,0,0,3.38-.75,2.35,2.35,0,0,0,1.14-2.06,2,2,0,0,0-.58-1.44,4.82,4.82,0,0,0-1.74-1q-1.17-.43-3.47-1A13.6,13.6,0,0,1,185,76.91a5.19,5.19,0,0,1-1.76-4.22,5.62,5.62,0,0,1,1-3.31,6.8,6.8,0,0,1,2.93-2.29,11,11,0,0,1,4.43-.83,10.53,10.53,0,0,1,4.59.93,7.59,7.59,0,0,1,2.94,2.32,5.13,5.13,0,0,1,1.07,2.77.67.67,0,0,1-.19.46.62.62,0,0,1-.48.21h-3a1,1,0,0,1-1-.58,2.48,2.48,0,0,0-1.25-1.71,5.81,5.81,0,0,0-5.46,0,2.2,2.2,0,0,0-1,2,2.09,2.09,0,0,0,.51,1.44,4.17,4.17,0,0,0,1.6,1,29.08,29.08,0,0,0,3.17,1,22.06,22.06,0,0,1,4.53,1.44,5.9,5.9,0,0,1,2.48,2,5.54,5.54,0,0,1,.8,3.1,5.85,5.85,0,0,1-1.14,3.6,7,7,0,0,1-3.2,2.32,13.19,13.19,0,0,1-4.78.8A12.65,12.65,0,0,1,186.85,88.44Z"/></g><g id="Layer_2" data-name="Layer 2"><path class="cls-1" d="M25.42,111.81c26.83,45.42,101.64,51.77,136,26.16,18.45-13.77,19.73-23.19,42.08-32,26.3-10.34,44.22-1.63,55-12.5,11.29-11.42,5.84-46.57-14.42-63.81C226.53,14.8,209.49,23,135.43,9.32,123.07,7,123.6,6.82,118.69,6.25,105.48,4.7,58.06,6.12,33.41,39,16.41,61.68,11.72,88.61,25.42,111.81Z"/></g><g id="Layer_3" data-name="Layer 3"><path class="cls-1" d="M132.53,144.87C97.35,137.23,91.22,106.95,44,105.41c-17.65-.57-33.87,8-39.17,2.17C-13.3,87.78,29,1,69.7.5,90.88.26,92.78,23.66,127.32,34.36c33.61,10.42,47-7,77.08,4.09,23.76,8.79,49.94,32.43,47.93,53.68C249.36,123.57,184.14,156.08,132.53,144.87Z"/></g><g id="Layer_4" data-name="Layer 4"><path class="cls-1" d="M241.38,78.65c1-41.13-46.67-56.45-80.15-58.18-22.2-1.14-27.53,2.79-58.78,5C55.82,28.83,36.1,9.5,25.56,19.7c-14,13.56,3.59,64.43,36.43,96.48,26.1,25.47,78.38,55.23,126.51,34C213.56,139.19,240.38,121.55,241.38,78.65Z"/></g></svg>