<?xml version="1.0" encoding="utf-8"?>
<!-- Generator: Adobe Illustrator 21.1.0, SVG Export Plug-In . SVG Version: 6.00 Build 0)  -->
<svg version="1.1" id="Layer_1" xmlns="http://www.w3.org/2000/svg" xmlns:xlink="http://www.w3.org/1999/xlink" x="0px" y="0px"
	 viewBox="0 0 79.9 21.4" style="enable-background:new 0 0 79.9 21.4;" xml:space="preserve">
<g>
	<path d="M12.1,16.7c0.1,1.4-0.6,2.7-1.8,3.5c-1.4,0.9-3,1.3-4.6,1.2c-0.3,0-0.6,0-0.8,0v-0.1C6,21,7,20.3,7.7,19.5
		c0.1-0.1,0.1-0.2,0.1-0.2c0.1-0.3,0.2-0.7,0.2-1c0-0.3-0.1-0.6-0.3-0.9c-0.2-0.3-0.5-0.5-0.8-0.6c-0.4-0.2-0.8-0.3-1.2-0.5
		l-1.6-0.5c-0.5-0.2-1-0.4-1.5-0.6c-0.5-0.2-1-0.5-1.4-0.9c-0.9-0.7-1.4-1.8-1.4-3C0,10.1,0.6,9,1.6,8.3C2.9,7.4,4.3,7,5.8,7.1
		c0.5,0,1,0,1.5,0.1v0.2C6.2,7.5,5.1,8.1,4.4,9C4.2,9.2,4.1,9.6,4.1,9.9c0,0.6,0.3,1.2,0.9,1.5c0.8,0.4,1.6,0.7,2.5,0.9
		c1.3,0.3,2.5,0.9,3.6,1.7C11.7,14.7,12.1,15.7,12.1,16.7z M5.3,18.8c0,1.4-1.1,2.5-2.5,2.5c-1.4,0-2.5-1.1-2.5-2.5s1.1-2.5,2.5-2.5
		C4.2,16.3,5.3,17.4,5.3,18.8z M7,9.8c0-1.3,1-2.3,2.3-2.3c1.3,0,2.3,1,2.3,2.3c0,1.3-1,2.3-2.3,2.3C8,12.1,7,11,7,9.8
		C7,9.8,7,9.7,7,9.8L7,9.8z"/>
	<path d="M21.9,20c0.2,0.1,0.4,0.1,0.7,0.1v1h-8.5v-1l0.7-0.1c0.2,0,0.4-0.1,0.6-0.1c0.3-0.1,0.5-0.2,0.6-0.5
		c0.1-0.3,0.2-0.5,0.2-0.8V3.4c0-0.3-0.1-0.6-0.2-0.9c-0.1-0.3-0.3-0.6-0.6-0.7c-0.2-0.1-0.5-0.2-0.8-0.3c-0.3-0.1-0.6-0.1-0.9-0.1
		V0.4L20.4,0l0.2,0.2v18.2c0,0.3,0,0.5,0.1,0.8c0.1,0.2,0.3,0.4,0.5,0.5C21.5,19.8,21.6,19.9,21.9,20z M31.9,20.1v1h-6.5
		c-0.8-1.4-1.5-2.6-2.2-3.5s-1.3-1.9-1.8-2.7v-1.2l0.1-0.2l1.3-1.2c0.8-0.8,1.5-1.5,2-2c0.2-0.2,0.4-0.4,0.5-0.7c0-0.1,0-0.2,0-0.3
		c0-0.2-0.1-0.3-0.4-0.4c-0.4-0.1-0.8-0.2-1.2-0.3v-1h6.9v0.9c-0.7,0.2-1.4,0.4-2.1,0.7C28,9.4,27.5,9.7,27,10
		c-0.6,0.5-2.1,2.1-2.1,2.1l2.3,3.3c0.8,1.1,1.5,2.3,2.4,3.5c0.2,0.4,0.6,0.7,1,0.9C31,19.9,31.4,20,31.9,20.1L31.9,20.1z"/>
	<path d="M43.3,20.1v1h-8.6v-1l0.7-0.1c0.2,0,0.4-0.1,0.6-0.1c0.3-0.1,0.5-0.2,0.6-0.5c0.1-0.2,0.2-0.5,0.2-0.8v-7.9
		c0-0.3-0.1-0.6-0.2-0.8c-0.1-0.2-0.3-0.4-0.5-0.6c-0.2-0.1-0.5-0.2-0.7-0.3c-0.3-0.1-0.6-0.2-0.9-0.2v-1L41,7.4l0.2,0.2v10.8
		c0,0.3,0.1,0.6,0.2,0.8c0.1,0.2,0.3,0.4,0.6,0.5c0.2,0.1,0.4,0.2,0.6,0.2C42.8,20,43,20,43.3,20.1z M36.1,2.5
		c0-1.4,1.1-2.5,2.5-2.5s2.5,1.1,2.5,2.5S40,5,38.6,5S36.1,3.9,36.1,2.5z"/>
	<path d="M54.2,20.1v1h-8.6v-1l0.7-0.1c0.2,0,0.4-0.1,0.6-0.1c0.3-0.1,0.5-0.2,0.6-0.5c0.1-0.3,0.2-0.5,0.2-0.8V3.5
		c0-0.3-0.1-0.7-0.2-1c-0.1-0.3-0.3-0.5-0.6-0.7c-0.3-0.2-0.5-0.3-0.8-0.3c-0.3-0.1-0.7-0.2-1-0.2V0.4L51.9,0l0.2,0.2v18.1
		c0,0.3,0,0.6,0.2,0.8c0.1,0.2,0.3,0.4,0.6,0.5c0.2,0.1,0.4,0.2,0.6,0.2C53.7,20,53.9,20,54.2,20.1z"/>
	<path d="M65.3,20.1v1h-8.6v-1l0.7-0.1c0.2,0,0.4-0.1,0.6-0.1c0.3-0.1,0.5-0.2,0.6-0.5c0.1-0.3,0.2-0.5,0.2-0.8V3.5
		c0-0.3-0.1-0.7-0.2-1C58.4,2.2,58.3,2,58,1.8c-0.3-0.2-0.5-0.3-0.8-0.3c-0.3-0.1-0.7-0.2-1-0.2V0.4L63.1,0l0.2,0.2v18.1
		c0,0.3,0,0.6,0.2,0.8c0.1,0.2,0.3,0.4,0.6,0.5c0.2,0.1,0.4,0.2,0.6,0.2C64.8,20,65.1,20,65.3,20.1z"/>
	<path d="M79.9,16.7c0.1,1.4-0.6,2.7-1.8,3.5c-1.4,0.9-3,1.3-4.6,1.2c-0.3,0-0.6,0-0.8,0v-0.1c1.1-0.3,2-0.9,2.8-1.7
		c0.1-0.1,0.1-0.2,0.1-0.2c0.1-0.3,0.2-0.7,0.2-1c0-0.3-0.1-0.6-0.3-0.9c-0.2-0.3-0.5-0.5-0.8-0.6c-0.4-0.2-0.8-0.3-1.2-0.5
		l-1.6-0.5c-0.5-0.2-1.1-0.3-1.6-0.5c-0.5-0.2-1-0.6-1.4-0.9c-0.9-0.7-1.4-1.8-1.3-3c0-1.2,0.6-2.4,1.6-3.1c1.2-0.8,2.7-1.2,4.2-1.2
		c0.5,0,1,0,1.5,0.1v0.2C74,7.5,72.9,8.1,72.2,9c-0.2,0.3-0.3,0.6-0.3,0.9c0,0.6,0.3,1.2,0.9,1.5c0.8,0.4,1.6,0.7,2.4,0.9
		c1.3,0.3,2.5,0.9,3.6,1.7C79.5,14.7,79.9,15.7,79.9,16.7z M73.2,18.8c0,1.4-1.1,2.5-2.5,2.5s-2.5-1.1-2.5-2.5s1.1-2.5,2.5-2.5
		S73.2,17.4,73.2,18.8z M74.8,9.8c0-1.3,1-2.3,2.3-2.3c1.3,0,2.3,1,2.3,2.3c0,1.3-1,2.3-2.3,2.3l0,0C75.8,12.1,74.8,11,74.8,9.8
		C74.8,9.8,74.8,9.7,74.8,9.8L74.8,9.8z"/>
</g>
</svg>
