<svg id="Layer_1" data-name="Layer 1" xmlns="http://www.w3.org/2000/svg" viewBox="0 0 136.53 64.93"><defs><style>.cls-1{fill:#fff;}</style></defs><title>Artboard 1</title><g id="Layer_4" data-name="Layer 4"><path d="M.14,38.28C-2.19,23.07,25,.49,48.81,0,62-.26,64.9,6.44,88.5,8c15.18,1,20.62-1.29,29.8,3.19,8.43,4.12,19,13.46,18.19,23.45-.91,11.62-16.74,18.51-23.92,21.64C69,75.26,3.48,60.14.14,38.28Z"/></g><g id="Layer_2" data-name="Layer 2"><path class="cls-1" d="M40.37,38.32a4,4,0,0,1-1.75,3.46A7.8,7.8,0,0,1,34.06,43a8.52,8.52,0,0,1-.85,0v-.14A5.43,5.43,0,0,0,36,41.11v0a1.27,1.27,0,0,0,.14-.25h0a2.2,2.2,0,0,0,.19-1A1.43,1.43,0,0,0,36,39a2.33,2.33,0,0,0-.75-.61,7,7,0,0,0-1.16-.46l-1.56-.46A14.75,14.75,0,0,1,31,36.9,5.38,5.38,0,0,1,29.62,36,3.84,3.84,0,0,1,28.27,33a3.68,3.68,0,0,1,1.61-3.1,7,7,0,0,1,4.22-1.18,9.8,9.8,0,0,1,1.47.12V29a4.41,4.41,0,0,0-2.92,1.58h0a1.44,1.44,0,0,0-.31.93,1.57,1.57,0,0,0,.88,1.5,11.68,11.68,0,0,0,2.45.87,8,8,0,0,1,3.56,1.71A3.66,3.66,0,0,1,40.37,38.32Zm-6.76,2.06a2.5,2.5,0,1,1-2.5-2.5A2.5,2.5,0,0,1,33.61,40.38Zm1.65-9a2.31,2.31,0,1,1,2.31,2.31A2.31,2.31,0,0,1,35.26,31.35Z"/><path class="cls-1" d="M50.12,41.58a4.2,4.2,0,0,0,.65.11v1H42.32v-1l.68-.07a3.9,3.9,0,0,0,.6-.13,1,1,0,0,0,.6-.46,1.82,1.82,0,0,0,.16-.82V25a2.46,2.46,0,0,0-.2-.93,1.51,1.51,0,0,0-.58-.73,2.43,2.43,0,0,0-.78-.27,6.56,6.56,0,0,0-.94-.14V22l6.78-.35.2.22V40.12a1.94,1.94,0,0,0,.14.8.91.91,0,0,0,.55.46A3.63,3.63,0,0,0,50.12,41.58Zm10,.11v1H53.66q-1.18-2.08-2.16-3.52t-1.85-2.68V35.29l.11-.24,1.35-1.25c.84-.79,1.51-1.47,2-2a1.78,1.78,0,0,0,.5-.7,2.23,2.23,0,0,0,0-.29q0-.25-.43-.41A6.46,6.46,0,0,0,52,30.12v-1h6.91v.94a14.22,14.22,0,0,0-2.07.71,7,7,0,0,0-1.56.89c-.57.47-2.09,2.08-2.09,2.08l2.27,3.3q1.13,1.65,2.36,3.48a2.05,2.05,0,0,0,1,.86A5.14,5.14,0,0,0,60.08,41.69Z"/><path class="cls-1" d="M71.52,41.69v1h-8.6v-1l.69-.07a2.46,2.46,0,0,0,.58-.14,1.13,1.13,0,0,0,.61-.47,1.6,1.6,0,0,0,.18-.81V32.29a1.59,1.59,0,0,0-.22-.84,1.8,1.8,0,0,0-.54-.58,2.89,2.89,0,0,0-.74-.31,4.84,4.84,0,0,0-.91-.19v-1L69.25,29l.2.2V40a1.52,1.52,0,0,0,.2.81,1.24,1.24,0,0,0,.58.5,4.41,4.41,0,0,0,.6.22A4,4,0,0,0,71.52,41.69ZM64.35,24.12a2.5,2.5,0,1,1,2.5,2.5A2.5,2.5,0,0,1,64.35,24.12Z"/><path class="cls-1" d="M82.43,41.69v1H73.86v-1l.69-.07a2.74,2.74,0,0,0,.6-.14,1,1,0,0,0,.6-.47,1.78,1.78,0,0,0,.16-.81V25.13a2.2,2.2,0,0,0-.21-1,1.61,1.61,0,0,0-.56-.67,3.27,3.27,0,0,0-.82-.34,4.51,4.51,0,0,0-1-.19V22l6.86-.35.2.22V40a1.63,1.63,0,0,0,.18.82,1.19,1.19,0,0,0,.57.49,5.36,5.36,0,0,0,.57.22A3.51,3.51,0,0,0,82.43,41.69Z"/><path class="cls-1" d="M93.59,41.69v1H85v-1l.69-.07a2.74,2.74,0,0,0,.6-.14,1,1,0,0,0,.6-.47,1.78,1.78,0,0,0,.16-.81V25.13a2.2,2.2,0,0,0-.21-1,1.61,1.61,0,0,0-.56-.67,3.27,3.27,0,0,0-.82-.34,4.51,4.51,0,0,0-1-.19V22l6.86-.35.2.22V40a1.63,1.63,0,0,0,.18.82,1.19,1.19,0,0,0,.57.49,5.36,5.36,0,0,0,.57.22A3.51,3.51,0,0,0,93.59,41.69Z"/><path class="cls-1" d="M108.19,38.32a4,4,0,0,1-1.75,3.46A7.8,7.8,0,0,1,101.88,43a8.53,8.53,0,0,1-.85,0v-.14a5.43,5.43,0,0,0,2.78-1.7v0a1.28,1.28,0,0,0,.14-.25h0a2.2,2.2,0,0,0,.19-1,1.43,1.43,0,0,0-.27-.9,2.33,2.33,0,0,0-.75-.61,7,7,0,0,0-1.16-.46l-1.56-.46a14.72,14.72,0,0,1-1.59-.55A5.37,5.37,0,0,1,97.44,36,3.84,3.84,0,0,1,96.09,33a3.68,3.68,0,0,1,1.61-3.1,7,7,0,0,1,4.22-1.18,9.8,9.8,0,0,1,1.47.12V29a4.41,4.41,0,0,0-2.92,1.58h0a1.44,1.44,0,0,0-.31.93,1.57,1.57,0,0,0,.88,1.5,11.7,11.7,0,0,0,2.45.87,8,8,0,0,1,3.56,1.71A3.65,3.65,0,0,1,108.19,38.32Zm-6.76,2.06a2.5,2.5,0,1,1-2.5-2.5A2.5,2.5,0,0,1,101.43,40.38Zm1.65-9a2.31,2.31,0,1,1,2.31,2.31A2.31,2.31,0,0,1,103.08,31.35Z"/></g></svg>